<svg width="84" height="26" viewBox="0 0 84 26" fill="none" xmlns="http://www.w3.org/2000/svg">
<rect width="84" height="26" rx="8" fill="#CFD2F5"/>
<path d="M25.11 7.93795C25.838 7.93795 26.4843 8.08728 27.049 8.38595C27.6137 8.68462 28.0663 9.08595 28.407 9.58995C28.7523 10.094 28.9577 10.6516 29.023 11.263H27.427C27.357 10.8803 27.2217 10.535 27.021 10.227C26.825 9.91428 26.5637 9.66928 26.237 9.49195C25.9103 9.30995 25.523 9.21895 25.075 9.21895C24.501 9.21895 24.0133 9.35428 23.612 9.62495C23.2107 9.89562 22.905 10.318 22.695 10.892C22.4897 11.466 22.387 12.2056 22.387 13.111C22.387 14.4783 22.618 15.4793 23.08 16.114C23.542 16.744 24.207 17.059 25.075 17.059C25.523 17.059 25.9103 16.9633 26.237 16.772C26.5637 16.576 26.825 16.317 27.021 15.995C27.2217 15.6683 27.357 15.3136 27.427 14.931H29.023C28.967 15.3743 28.8503 15.8013 28.673 16.212C28.4957 16.618 28.2483 16.982 27.931 17.304C27.6183 17.626 27.2287 17.8803 26.762 18.067C26.2953 18.249 25.7447 18.34 25.11 18.34C24.1953 18.34 23.4113 18.13 22.758 17.71C22.1047 17.2853 21.603 16.6833 21.253 15.904C20.9077 15.12 20.735 14.182 20.735 13.09C20.735 12.0026 20.9077 11.0763 21.253 10.311C21.5983 9.54095 22.0977 8.95295 22.751 8.54695C23.4043 8.14095 24.1907 7.93795 25.11 7.93795ZM32.723 18.298C32.2937 18.298 31.9484 18.242 31.687 18.13C31.4304 18.018 31.2344 17.8686 31.099 17.682C30.9637 17.4906 30.8727 17.276 30.826 17.038C30.784 16.7953 30.763 16.5456 30.763 16.289V7.79795H32.24V16.135C32.24 16.471 32.3054 16.7276 32.436 16.905C32.5714 17.0823 32.7767 17.1826 33.052 17.206L33.43 17.22V18.172C33.3134 18.2093 33.192 18.2396 33.066 18.263C32.9447 18.2863 32.8304 18.298 32.723 18.298ZM37.8593 18.34C37.1826 18.34 36.59 18.1953 36.0813 17.906C35.5773 17.612 35.1853 17.1873 34.9053 16.632C34.63 16.0766 34.4923 15.4046 34.4923 14.616C34.4923 13.8553 34.623 13.1903 34.8843 12.621C35.1503 12.0516 35.5353 11.6106 36.0393 11.298C36.5433 10.9806 37.1523 10.822 37.8663 10.822C38.5476 10.822 39.138 10.9713 39.6373 11.27C40.1366 11.564 40.524 11.9956 40.7993 12.565C41.0746 13.1296 41.2123 13.8133 41.2123 14.616C41.2123 15.3486 41.0816 15.995 40.8203 16.555C40.5636 17.115 40.1856 17.5536 39.6863 17.871C39.1916 18.1836 38.5826 18.34 37.8593 18.34ZM37.8663 17.185C38.277 17.185 38.62 17.0776 38.8953 16.863C39.1753 16.6436 39.3853 16.338 39.5253 15.946C39.6653 15.5493 39.7353 15.092 39.7353 14.574C39.7353 14.0933 39.6723 13.657 39.5463 13.265C39.425 12.8683 39.2266 12.5533 38.9513 12.32C38.676 12.0866 38.3143 11.97 37.8663 11.97C37.4463 11.97 37.0963 12.0773 36.8163 12.292C36.5363 12.502 36.324 12.803 36.1793 13.195C36.0393 13.5823 35.9693 14.042 35.9693 14.574C35.9693 15.0453 36.0323 15.4793 36.1583 15.876C36.2843 16.2726 36.4873 16.59 36.7673 16.828C37.0473 17.066 37.4136 17.185 37.8663 17.185ZM45.4336 18.34C44.9296 18.34 44.456 18.2606 44.0126 18.102C43.574 17.9433 43.2053 17.6936 42.9066 17.353C42.6126 17.0123 42.4283 16.576 42.3536 16.044H43.6906C43.7513 16.3193 43.8656 16.548 44.0336 16.73C44.2063 16.9073 44.4116 17.0403 44.6496 17.129C44.8923 17.213 45.1513 17.255 45.4266 17.255C45.884 17.255 46.2526 17.1733 46.5326 17.01C46.8173 16.842 46.9596 16.5853 46.9596 16.24C46.9596 15.9926 46.8826 15.7943 46.7286 15.645C46.5793 15.4956 46.3413 15.386 46.0146 15.316L44.5726 14.973C43.9753 14.833 43.497 14.6113 43.1376 14.308C42.7783 14 42.5963 13.5706 42.5916 13.02C42.5916 12.5953 42.6966 12.2173 42.9066 11.886C43.1213 11.5546 43.4386 11.2956 43.8586 11.109C44.2786 10.9176 44.8013 10.822 45.4266 10.822C46.2433 10.822 46.899 11.004 47.3936 11.368C47.8883 11.732 48.145 12.2593 48.1636 12.95H46.8686C46.822 12.6186 46.6703 12.3596 46.4136 12.173C46.1616 11.9816 45.828 11.886 45.4126 11.886C44.9833 11.886 44.631 11.9723 44.3556 12.145C44.0803 12.313 43.9426 12.572 43.9426 12.922C43.9426 13.16 44.043 13.349 44.2436 13.489C44.4443 13.6243 44.7453 13.7363 45.1466 13.825L46.5186 14.168C46.8733 14.2613 47.165 14.385 47.3936 14.539C47.6223 14.6883 47.802 14.854 47.9326 15.036C48.0633 15.218 48.1543 15.407 48.2056 15.603C48.2616 15.799 48.2896 15.9833 48.2896 16.156C48.2896 16.6133 48.173 17.0053 47.9396 17.332C47.711 17.654 47.382 17.9036 46.9526 18.081C46.528 18.2536 46.0216 18.34 45.4336 18.34ZM51.1197 14.931C51.1197 15.365 51.1897 15.7546 51.3297 16.1C51.4744 16.4406 51.6914 16.7113 51.9807 16.912C52.27 17.108 52.6294 17.206 53.0587 17.206C53.488 17.206 53.859 17.108 54.1717 16.912C54.489 16.716 54.6967 16.4243 54.7947 16.037H56.1807C56.0967 16.5316 55.8984 16.9516 55.5857 17.297C55.2777 17.6423 54.9044 17.9036 54.4657 18.081C54.027 18.2536 53.5674 18.34 53.0867 18.34C52.4007 18.34 51.7964 18.193 51.2737 17.899C50.751 17.6003 50.3427 17.1756 50.0487 16.625C49.7594 16.0743 49.6147 15.4186 49.6147 14.658C49.6147 13.9066 49.7477 13.244 50.0137 12.67C50.2797 12.0913 50.6647 11.6386 51.1687 11.312C51.6727 10.9853 52.2794 10.822 52.9887 10.822C53.6887 10.822 54.2767 10.9713 54.7527 11.27C55.2334 11.5686 55.5974 11.9886 55.8447 12.53C56.092 13.0666 56.2157 13.7013 56.2157 14.434V14.931H51.1197ZM51.1197 13.958H54.7877C54.7877 13.58 54.7224 13.237 54.5917 12.929C54.461 12.6163 54.2604 12.3713 53.9897 12.194C53.7237 12.012 53.3877 11.921 52.9817 11.921C52.5664 11.921 52.221 12.0213 51.9457 12.222C51.6704 12.4226 51.4627 12.6793 51.3227 12.992C51.1874 13.3046 51.1197 13.6266 51.1197 13.958ZM60.527 18.34C59.575 18.34 58.826 18.0156 58.28 17.367C57.734 16.7136 57.461 15.7733 57.461 14.546C57.461 13.7946 57.5707 13.1413 57.79 12.586C58.0094 12.026 58.336 11.592 58.77 11.284C59.2087 10.976 59.75 10.822 60.394 10.822C60.7207 10.822 61.01 10.8616 61.262 10.941C61.5187 11.0203 61.7427 11.123 61.934 11.249C62.13 11.375 62.291 11.5103 62.417 11.655C62.5477 11.7996 62.648 11.935 62.718 12.061V7.79795H64.223V18.2H63.103L62.935 16.716C62.8837 16.8746 62.8044 17.0473 62.697 17.234C62.5897 17.4206 62.4427 17.598 62.256 17.766C62.074 17.934 61.8407 18.0716 61.556 18.179C61.2714 18.2863 60.9284 18.34 60.527 18.34ZM60.814 17.213C61.486 17.213 61.9714 17.003 62.27 16.583C62.5687 16.1583 62.718 15.463 62.718 14.497C62.7134 13.951 62.6457 13.489 62.515 13.111C62.3844 12.733 62.1814 12.4483 61.906 12.257C61.6354 12.061 61.2784 11.963 60.835 11.963C60.2797 11.963 59.827 12.1636 59.477 12.565C59.127 12.9616 58.952 13.6056 58.952 14.497C58.952 15.3743 59.1107 16.0463 59.428 16.513C59.75 16.9796 60.212 17.213 60.814 17.213Z" fill="#434991"/>
</svg>
