<svg width="16" height="16" viewBox="0 0 16 16" fill="none" xmlns="http://www.w3.org/2000/svg">
<circle cx="8" cy="8" r="8" fill="#A6B0C3"/>
<path d="M8.004 5.352C7.74 5.352 7.516 5.26 7.332 5.076C7.148 4.892 7.056 4.668 7.056 4.404C7.056 4.14 7.148 3.916 7.332 3.732C7.516 3.54 7.74 3.444 8.004 3.444C8.268 3.444 8.492 3.54 8.676 3.732C8.868 3.916 8.964 4.14 8.964 4.404C8.964 4.668 8.868 4.892 8.676 5.076C8.492 5.26 8.268 5.352 8.004 5.352ZM7.188 12.072C6.804 12.072 6.492 11.952 6.252 11.712C6.02 11.472 5.904 11.112 5.904 10.632C5.904 10.432 5.936 10.172 6 9.852L6.816 6H8.544L7.68 10.08C7.648 10.2 7.632 10.328 7.632 10.464C7.632 10.624 7.668 10.74 7.74 10.812C7.82 10.876 7.948 10.908 8.124 10.908C8.268 10.908 8.396 10.884 8.508 10.836C8.476 11.236 8.332 11.544 8.076 11.76C7.828 11.968 7.532 12.072 7.188 12.072Z" fill="white"/>
</svg>
