<svg width="127" height="22" viewBox="0 0 127 22" fill="none" xmlns="http://www.w3.org/2000/svg">
<path d="M1 14.8889C1 18.8889 5.79351 20.6296 8.19027 21H67.6734H71.5953C72.9026 20.4444 72.249 19.3333 71.5953 18.7778C55.9075 5 49.3709 1.18519 48.0636 1H28.4537H8.19027C3.48391 1 1.43577 5.07407 1 7.11111V14.8889Z" fill="#F6ECD0" stroke="#F6ECD0" stroke-width="0.15"/>
<path d="M72.9032 19.8889L50.6787 2.1111L53.947 1.55554L72.9032 19.8889Z" fill="white" stroke="white" stroke-width="0.15"/>
<path d="M8.91772 5.878H10.4157V16H8.91772V5.878ZM15.3653 16.14C14.8613 16.14 14.3876 16.0607 13.9443 15.902C13.5056 15.7433 13.1369 15.4937 12.8383 15.153C12.5443 14.8123 12.3599 14.376 12.2853 13.844H13.6223C13.6829 14.1193 13.7973 14.348 13.9653 14.53C14.1379 14.7073 14.3433 14.8403 14.5813 14.929C14.8239 15.013 15.0829 15.055 15.3583 15.055C15.8156 15.055 16.1843 14.9733 16.4643 14.81C16.7489 14.642 16.8913 14.3853 16.8913 14.04C16.8913 13.7927 16.8143 13.5943 16.6603 13.445C16.5109 13.2957 16.2729 13.186 15.9463 13.116L14.5043 12.773C13.9069 12.633 13.4286 12.4113 13.0693 12.108C12.7099 11.8 12.5279 11.3707 12.5233 10.82C12.5233 10.3953 12.6283 10.0173 12.8383 9.686C13.0529 9.35467 13.3703 9.09567 13.7903 8.909C14.2103 8.71767 14.7329 8.622 15.3583 8.622C16.1749 8.622 16.8306 8.804 17.3253 9.168C17.8199 9.532 18.0766 10.0593 18.0953 10.75H16.8003C16.7536 10.4187 16.6019 10.1597 16.3453 9.973C16.0933 9.78167 15.7596 9.686 15.3443 9.686C14.9149 9.686 14.5626 9.77233 14.2873 9.945C14.0119 10.113 13.8743 10.372 13.8743 10.722C13.8743 10.96 13.9746 11.149 14.1753 11.289C14.3759 11.4243 14.6769 11.5363 15.0783 11.625L16.4503 11.968C16.8049 12.0613 17.0966 12.185 17.3253 12.339C17.5539 12.4883 17.7336 12.654 17.8643 12.836C17.9949 13.018 18.0859 13.207 18.1373 13.403C18.1933 13.599 18.2213 13.7833 18.2213 13.956C18.2213 14.4133 18.1046 14.8053 17.8713 15.132C17.6426 15.454 17.3136 15.7037 16.8843 15.881C16.4596 16.0537 15.9533 16.14 15.3653 16.14ZM22.461 16.14C21.957 16.14 21.4833 16.0607 21.04 15.902C20.6013 15.7433 20.2326 15.4937 19.934 15.153C19.64 14.8123 19.4556 14.376 19.381 13.844H20.718C20.7786 14.1193 20.893 14.348 21.061 14.53C21.2336 14.7073 21.439 14.8403 21.677 14.929C21.9196 15.013 22.1786 15.055 22.454 15.055C22.9113 15.055 23.28 14.9733 23.56 14.81C23.8446 14.642 23.987 14.3853 23.987 14.04C23.987 13.7927 23.91 13.5943 23.756 13.445C23.6066 13.2957 23.3686 13.186 23.042 13.116L21.6 12.773C21.0026 12.633 20.5243 12.4113 20.165 12.108C19.8056 11.8 19.6236 11.3707 19.619 10.82C19.619 10.3953 19.724 10.0173 19.934 9.686C20.1486 9.35467 20.466 9.09567 20.886 8.909C21.306 8.71767 21.8286 8.622 22.454 8.622C23.2706 8.622 23.9263 8.804 24.421 9.168C24.9156 9.532 25.1723 10.0593 25.191 10.75H23.896C23.8493 10.4187 23.6976 10.1597 23.441 9.973C23.189 9.78167 22.8553 9.686 22.44 9.686C22.0106 9.686 21.6583 9.77233 21.383 9.945C21.1076 10.113 20.97 10.372 20.97 10.722C20.97 10.96 21.0703 11.149 21.271 11.289C21.4716 11.4243 21.7726 11.5363 22.174 11.625L23.546 11.968C23.9006 12.0613 24.1923 12.185 24.421 12.339C24.6496 12.4883 24.8293 12.654 24.96 12.836C25.0906 13.018 25.1816 13.207 25.233 13.403C25.289 13.599 25.317 13.7833 25.317 13.956C25.317 14.4133 25.2003 14.8053 24.967 15.132C24.7383 15.454 24.4093 15.7037 23.98 15.881C23.5553 16.0537 23.049 16.14 22.461 16.14ZM29.673 16.14C29.309 16.1353 28.9614 16.0817 28.63 15.979C28.2987 15.8763 28.0024 15.7223 27.741 15.517C27.4844 15.3117 27.279 15.0573 27.125 14.754C26.9757 14.4507 26.901 14.0983 26.901 13.697V8.762H28.406V13.536C28.406 13.97 28.5414 14.3223 28.812 14.593C29.0827 14.8637 29.491 14.999 30.037 14.999C30.5317 14.999 30.9284 14.8707 31.227 14.614C31.5257 14.3527 31.675 13.9723 31.675 13.473V8.762H33.166V16H32.004L31.836 14.6C31.752 14.978 31.6004 15.2813 31.381 15.51C31.1664 15.734 30.9097 15.8973 30.611 16C30.317 16.098 30.0044 16.1447 29.673 16.14ZM36.2271 12.731C36.2271 13.165 36.2971 13.5547 36.4371 13.9C36.5818 14.2407 36.7988 14.5113 37.0881 14.712C37.3775 14.908 37.7368 15.006 38.1661 15.006C38.5955 15.006 38.9665 14.908 39.2791 14.712C39.5965 14.516 39.8041 14.2243 39.9021 13.837H41.2881C41.2041 14.3317 41.0058 14.7517 40.6931 15.097C40.3851 15.4423 40.0118 15.7037 39.5731 15.881C39.1345 16.0537 38.6748 16.14 38.1941 16.14C37.5081 16.14 36.9038 15.993 36.3811 15.699C35.8585 15.4003 35.4501 14.9757 35.1561 14.425C34.8668 13.8743 34.7221 13.2187 34.7221 12.458C34.7221 11.7067 34.8551 11.044 35.1211 10.47C35.3871 9.89133 35.7721 9.43867 36.2761 9.112C36.7801 8.78533 37.3868 8.622 38.0961 8.622C38.7961 8.622 39.3841 8.77133 39.8601 9.07C40.3408 9.36867 40.7048 9.78867 40.9521 10.33C41.1995 10.8667 41.3231 11.5013 41.3231 12.234V12.731H36.2271ZM36.2271 11.758H39.8951C39.8951 11.38 39.8298 11.037 39.6991 10.729C39.5685 10.4163 39.3678 10.1713 39.0971 9.994C38.8311 9.812 38.4951 9.721 38.0891 9.721C37.6738 9.721 37.3285 9.82133 37.0531 10.022C36.7778 10.2227 36.5701 10.4793 36.4301 10.792C36.2948 11.1047 36.2271 11.4267 36.2271 11.758ZM45.6075 16.14C45.1035 16.14 44.6298 16.0607 44.1865 15.902C43.7478 15.7433 43.3791 15.4937 43.0805 15.153C42.7865 14.8123 42.6021 14.376 42.5275 13.844H43.8645C43.9251 14.1193 44.0395 14.348 44.2075 14.53C44.3801 14.7073 44.5855 14.8403 44.8235 14.929C45.0661 15.013 45.3251 15.055 45.6005 15.055C46.0578 15.055 46.4265 14.9733 46.7065 14.81C46.9911 14.642 47.1335 14.3853 47.1335 14.04C47.1335 13.7927 47.0565 13.5943 46.9025 13.445C46.7531 13.2957 46.5151 13.186 46.1885 13.116L44.7465 12.773C44.1491 12.633 43.6708 12.4113 43.3115 12.108C42.9521 11.8 42.7701 11.3707 42.7655 10.82C42.7655 10.3953 42.8705 10.0173 43.0805 9.686C43.2951 9.35467 43.6125 9.09567 44.0325 8.909C44.4525 8.71767 44.9751 8.622 45.6005 8.622C46.4171 8.622 47.0728 8.804 47.5675 9.168C48.0621 9.532 48.3188 10.0593 48.3375 10.75H47.0425C46.9958 10.4187 46.8441 10.1597 46.5875 9.973C46.3355 9.78167 46.0018 9.686 45.5865 9.686C45.1571 9.686 44.8048 9.77233 44.5295 9.945C44.2541 10.113 44.1165 10.372 44.1165 10.722C44.1165 10.96 44.2168 11.149 44.4175 11.289C44.6181 11.4243 44.9191 11.5363 45.3205 11.625L46.6925 11.968C47.0471 12.0613 47.3388 12.185 47.5675 12.339C47.7961 12.4883 47.9758 12.654 48.1065 12.836C48.2371 13.018 48.3281 13.207 48.3795 13.403C48.4355 13.599 48.4635 13.7833 48.4635 13.956C48.4635 14.4133 48.3468 14.8053 48.1135 15.132C47.8848 15.454 47.5558 15.7037 47.1265 15.881C46.7018 16.0537 46.1955 16.14 45.6075 16.14Z" fill="#B78700"/>
<path d="M125.999 7.11111C125.999 3.11111 121.206 1.37037 118.809 1H59.3257H55.4037C54.0964 1.55556 54.75 2.66667 55.4037 3.22222C71.0915 17 77.6281 20.8148 78.9355 21H98.5453H118.809C123.515 21 125.563 16.9259 125.999 14.8889V7.11111Z" fill="#E0F3E0" stroke="#E0F3E0" stroke-width="0.15"/>
<path d="M54.0959 2.11113L76.3203 19.8889L73.052 20.4445L54.0959 2.11113Z" fill="white" stroke="white" stroke-width="0.15"/>
<path d="M82.5351 16.14C81.6158 16.14 80.8201 15.937 80.1481 15.531C79.4808 15.1203 78.9651 14.53 78.6011 13.76C78.2418 12.9853 78.0621 12.052 78.0621 10.96C78.0621 9.85867 78.2441 8.92067 78.6081 8.146C78.9768 7.36667 79.4948 6.77167 80.1621 6.361C80.8341 5.94567 81.6251 5.738 82.5351 5.738C83.4405 5.738 84.2245 5.94567 84.8871 6.361C85.5545 6.77167 86.0678 7.36667 86.4271 8.146C86.7911 8.92067 86.9731 9.85867 86.9731 10.96C86.9731 12.052 86.7935 12.983 86.4341 13.753C86.0748 14.523 85.5615 15.1133 84.8941 15.524C84.2315 15.9347 83.4451 16.14 82.5351 16.14ZM82.5351 14.859C83.1231 14.859 83.6248 14.7237 84.0401 14.453C84.4601 14.1823 84.7798 13.76 84.9991 13.186C85.2185 12.612 85.3281 11.877 85.3281 10.981C85.3281 10.0617 85.2161 9.31033 84.9921 8.727C84.7728 8.14367 84.4531 7.71433 84.0331 7.439C83.6178 7.159 83.1185 7.019 82.5351 7.019C81.9518 7.019 81.4478 7.159 81.0231 7.439C80.6031 7.719 80.2788 8.15067 80.0501 8.734C79.8215 9.31733 79.7071 10.0663 79.7071 10.981C79.7071 11.8817 79.8215 12.619 80.0501 13.193C80.2788 13.7623 80.6031 14.1823 81.0231 14.453C81.4478 14.7237 81.9518 14.859 82.5351 14.859ZM88.5961 18.254V8.762H90.0941L90.1081 9.966C90.1967 9.80733 90.3111 9.651 90.4511 9.497C90.5911 9.33833 90.7567 9.19367 90.9481 9.063C91.1441 8.92767 91.3657 8.82033 91.6131 8.741C91.8651 8.66167 92.1427 8.622 92.4461 8.622C93.0154 8.622 93.5171 8.755 93.9511 9.021C94.3897 9.28233 94.7304 9.686 94.9731 10.232C95.2204 10.7733 95.3441 11.4617 95.3441 12.297C95.3441 13.137 95.2204 13.8417 94.9731 14.411C94.7304 14.9803 94.3827 15.412 93.9301 15.706C93.4774 15.9953 92.9407 16.14 92.3201 16.14C92.0214 16.14 91.7531 16.098 91.5151 16.014C91.2771 15.93 91.0671 15.8203 90.8851 15.685C90.7031 15.545 90.5467 15.3957 90.4161 15.237C90.2901 15.0737 90.1851 14.9127 90.1011 14.754V18.254H88.5961ZM92.0051 14.999C92.5604 14.999 93.0154 14.7843 93.3701 14.355C93.7294 13.921 93.9091 13.2443 93.9091 12.325C93.9091 11.5363 93.7434 10.9133 93.4121 10.456C93.0854 9.994 92.6164 9.763 92.0051 9.763C91.3751 9.763 90.8991 10.0033 90.5771 10.484C90.2551 10.96 90.0941 11.5737 90.0941 12.325C90.0941 12.815 90.1641 13.263 90.3041 13.669C90.4487 14.0703 90.6634 14.3923 90.9481 14.635C91.2327 14.8777 91.5851 14.999 92.0051 14.999ZM98.0836 12.731C98.0836 13.165 98.1536 13.5547 98.2936 13.9C98.4382 14.2407 98.6552 14.5113 98.9446 14.712C99.2339 14.908 99.5932 15.006 100.023 15.006C100.452 15.006 100.823 14.908 101.136 14.712C101.453 14.516 101.661 14.2243 101.759 13.837H103.145C103.061 14.3317 102.862 14.7517 102.55 15.097C102.242 15.4423 101.868 15.7037 101.43 15.881C100.991 16.0537 100.531 16.14 100.051 16.14C99.3646 16.14 98.7602 15.993 98.2376 15.699C97.7149 15.4003 97.3066 14.9757 97.0126 14.425C96.7232 13.8743 96.5786 13.2187 96.5786 12.458C96.5786 11.7067 96.7116 11.044 96.9776 10.47C97.2436 9.89133 97.6286 9.43867 98.1326 9.112C98.6366 8.78533 99.2432 8.622 99.9526 8.622C100.653 8.622 101.241 8.77133 101.717 9.07C102.197 9.36867 102.561 9.78867 102.809 10.33C103.056 10.8667 103.18 11.5013 103.18 12.234V12.731H98.0836ZM98.0836 11.758H101.752C101.752 11.38 101.686 11.037 101.556 10.729C101.425 10.4163 101.224 10.1713 100.954 9.994C100.688 9.812 100.352 9.721 99.9456 9.721C99.5302 9.721 99.1849 9.82133 98.9096 10.022C98.6342 10.2227 98.4266 10.4793 98.2866 10.792C98.1512 11.1047 98.0836 11.4267 98.0836 11.758ZM104.852 16V8.762H106.315V9.805C106.432 9.609 106.588 9.42467 106.784 9.252C106.985 9.07933 107.23 8.93933 107.519 8.832C107.813 8.72467 108.151 8.671 108.534 8.671C108.987 8.671 109.404 8.762 109.787 8.944C110.174 9.12133 110.485 9.40133 110.718 9.784C110.951 10.162 111.068 10.652 111.068 11.254V16H109.57V11.415C109.57 10.897 109.43 10.512 109.15 10.26C108.875 10.008 108.518 9.882 108.079 9.882C107.785 9.882 107.505 9.931 107.239 10.029C106.973 10.127 106.758 10.2763 106.595 10.477C106.432 10.673 106.35 10.9203 106.35 11.219V16H104.852Z" fill="#2B840E"/>
</svg>
