<svg width="125" height="22" viewBox="0 0 125 22" fill="none" xmlns="http://www.w3.org/2000/svg">
<path d="M1 14.8889C1 18.8889 5.79351 20.6296 8.19027 21H67.6734H71.5953C72.9026 20.4444 72.249 19.3333 71.5953 18.7778C55.9075 5 49.3709 1.18519 48.0636 1H28.4537H8.19027C3.48391 1 1.43577 5.07407 1 7.11111V14.8889Z" fill="#F6ECD0" stroke="#F6ECD0" stroke-width="0.15"/>
<path d="M72.9032 19.8889L50.6787 2.1111L53.947 1.55554L72.9032 19.8889Z" fill="white" stroke="white" stroke-width="0.15"/>
<path d="M8.91772 5.878H10.4157V16H8.91772V5.878ZM15.3653 16.14C14.8613 16.14 14.3876 16.0607 13.9443 15.902C13.5056 15.7433 13.1369 15.4937 12.8383 15.153C12.5443 14.8123 12.3599 14.376 12.2853 13.844H13.6223C13.6829 14.1193 13.7973 14.348 13.9653 14.53C14.1379 14.7073 14.3433 14.8403 14.5813 14.929C14.8239 15.013 15.0829 15.055 15.3583 15.055C15.8156 15.055 16.1843 14.9733 16.4643 14.81C16.7489 14.642 16.8913 14.3853 16.8913 14.04C16.8913 13.7927 16.8143 13.5943 16.6603 13.445C16.5109 13.2957 16.2729 13.186 15.9463 13.116L14.5043 12.773C13.9069 12.633 13.4286 12.4113 13.0693 12.108C12.7099 11.8 12.5279 11.3707 12.5233 10.82C12.5233 10.3953 12.6283 10.0173 12.8383 9.686C13.0529 9.35467 13.3703 9.09567 13.7903 8.909C14.2103 8.71767 14.7329 8.622 15.3583 8.622C16.1749 8.622 16.8306 8.804 17.3253 9.168C17.8199 9.532 18.0766 10.0593 18.0953 10.75H16.8003C16.7536 10.4187 16.6019 10.1597 16.3453 9.973C16.0933 9.78167 15.7596 9.686 15.3443 9.686C14.9149 9.686 14.5626 9.77233 14.2873 9.945C14.0119 10.113 13.8743 10.372 13.8743 10.722C13.8743 10.96 13.9746 11.149 14.1753 11.289C14.3759 11.4243 14.6769 11.5363 15.0783 11.625L16.4503 11.968C16.8049 12.0613 17.0966 12.185 17.3253 12.339C17.5539 12.4883 17.7336 12.654 17.8643 12.836C17.9949 13.018 18.0859 13.207 18.1373 13.403C18.1933 13.599 18.2213 13.7833 18.2213 13.956C18.2213 14.4133 18.1046 14.8053 17.8713 15.132C17.6426 15.454 17.3136 15.7037 16.8843 15.881C16.4596 16.0537 15.9533 16.14 15.3653 16.14ZM22.461 16.14C21.957 16.14 21.4833 16.0607 21.04 15.902C20.6013 15.7433 20.2326 15.4937 19.934 15.153C19.64 14.8123 19.4556 14.376 19.381 13.844H20.718C20.7786 14.1193 20.893 14.348 21.061 14.53C21.2336 14.7073 21.439 14.8403 21.677 14.929C21.9196 15.013 22.1786 15.055 22.454 15.055C22.9113 15.055 23.28 14.9733 23.56 14.81C23.8446 14.642 23.987 14.3853 23.987 14.04C23.987 13.7927 23.91 13.5943 23.756 13.445C23.6066 13.2957 23.3686 13.186 23.042 13.116L21.6 12.773C21.0026 12.633 20.5243 12.4113 20.165 12.108C19.8056 11.8 19.6236 11.3707 19.619 10.82C19.619 10.3953 19.724 10.0173 19.934 9.686C20.1486 9.35467 20.466 9.09567 20.886 8.909C21.306 8.71767 21.8286 8.622 22.454 8.622C23.2706 8.622 23.9263 8.804 24.421 9.168C24.9156 9.532 25.1723 10.0593 25.191 10.75H23.896C23.8493 10.4187 23.6976 10.1597 23.441 9.973C23.189 9.78167 22.8553 9.686 22.44 9.686C22.0106 9.686 21.6583 9.77233 21.383 9.945C21.1076 10.113 20.97 10.372 20.97 10.722C20.97 10.96 21.0703 11.149 21.271 11.289C21.4716 11.4243 21.7726 11.5363 22.174 11.625L23.546 11.968C23.9006 12.0613 24.1923 12.185 24.421 12.339C24.6496 12.4883 24.8293 12.654 24.96 12.836C25.0906 13.018 25.1816 13.207 25.233 13.403C25.289 13.599 25.317 13.7833 25.317 13.956C25.317 14.4133 25.2003 14.8053 24.967 15.132C24.7383 15.454 24.4093 15.7037 23.98 15.881C23.5553 16.0537 23.049 16.14 22.461 16.14ZM29.673 16.14C29.309 16.1353 28.9614 16.0817 28.63 15.979C28.2987 15.8763 28.0024 15.7223 27.741 15.517C27.4844 15.3117 27.279 15.0573 27.125 14.754C26.9757 14.4507 26.901 14.0983 26.901 13.697V8.762H28.406V13.536C28.406 13.97 28.5414 14.3223 28.812 14.593C29.0827 14.8637 29.491 14.999 30.037 14.999C30.5317 14.999 30.9284 14.8707 31.227 14.614C31.5257 14.3527 31.675 13.9723 31.675 13.473V8.762H33.166V16H32.004L31.836 14.6C31.752 14.978 31.6004 15.2813 31.381 15.51C31.1664 15.734 30.9097 15.8973 30.611 16C30.317 16.098 30.0044 16.1447 29.673 16.14ZM36.2271 12.731C36.2271 13.165 36.2971 13.5547 36.4371 13.9C36.5818 14.2407 36.7988 14.5113 37.0881 14.712C37.3775 14.908 37.7368 15.006 38.1661 15.006C38.5955 15.006 38.9665 14.908 39.2791 14.712C39.5965 14.516 39.8041 14.2243 39.9021 13.837H41.2881C41.2041 14.3317 41.0058 14.7517 40.6931 15.097C40.3851 15.4423 40.0118 15.7037 39.5731 15.881C39.1345 16.0537 38.6748 16.14 38.1941 16.14C37.5081 16.14 36.9038 15.993 36.3811 15.699C35.8585 15.4003 35.4501 14.9757 35.1561 14.425C34.8668 13.8743 34.7221 13.2187 34.7221 12.458C34.7221 11.7067 34.8551 11.044 35.1211 10.47C35.3871 9.89133 35.7721 9.43867 36.2761 9.112C36.7801 8.78533 37.3868 8.622 38.0961 8.622C38.7961 8.622 39.3841 8.77133 39.8601 9.07C40.3408 9.36867 40.7048 9.78867 40.9521 10.33C41.1995 10.8667 41.3231 11.5013 41.3231 12.234V12.731H36.2271ZM36.2271 11.758H39.8951C39.8951 11.38 39.8298 11.037 39.6991 10.729C39.5685 10.4163 39.3678 10.1713 39.0971 9.994C38.8311 9.812 38.4951 9.721 38.0891 9.721C37.6738 9.721 37.3285 9.82133 37.0531 10.022C36.7778 10.2227 36.5701 10.4793 36.4301 10.792C36.2948 11.1047 36.2271 11.4267 36.2271 11.758ZM45.6075 16.14C45.1035 16.14 44.6298 16.0607 44.1865 15.902C43.7478 15.7433 43.3791 15.4937 43.0805 15.153C42.7865 14.8123 42.6021 14.376 42.5275 13.844H43.8645C43.9251 14.1193 44.0395 14.348 44.2075 14.53C44.3801 14.7073 44.5855 14.8403 44.8235 14.929C45.0661 15.013 45.3251 15.055 45.6005 15.055C46.0578 15.055 46.4265 14.9733 46.7065 14.81C46.9911 14.642 47.1335 14.3853 47.1335 14.04C47.1335 13.7927 47.0565 13.5943 46.9025 13.445C46.7531 13.2957 46.5151 13.186 46.1885 13.116L44.7465 12.773C44.1491 12.633 43.6708 12.4113 43.3115 12.108C42.9521 11.8 42.7701 11.3707 42.7655 10.82C42.7655 10.3953 42.8705 10.0173 43.0805 9.686C43.2951 9.35467 43.6125 9.09567 44.0325 8.909C44.4525 8.71767 44.9751 8.622 45.6005 8.622C46.4171 8.622 47.0728 8.804 47.5675 9.168C48.0621 9.532 48.3188 10.0593 48.3375 10.75H47.0425C46.9958 10.4187 46.8441 10.1597 46.5875 9.973C46.3355 9.78167 46.0018 9.686 45.5865 9.686C45.1571 9.686 44.8048 9.77233 44.5295 9.945C44.2541 10.113 44.1165 10.372 44.1165 10.722C44.1165 10.96 44.2168 11.149 44.4175 11.289C44.6181 11.4243 44.9191 11.5363 45.3205 11.625L46.6925 11.968C47.0471 12.0613 47.3388 12.185 47.5675 12.339C47.7961 12.4883 47.9758 12.654 48.1065 12.836C48.2371 13.018 48.3281 13.207 48.3795 13.403C48.4355 13.599 48.4635 13.7833 48.4635 13.956C48.4635 14.4133 48.3468 14.8053 48.1135 15.132C47.8848 15.454 47.5558 15.7037 47.1265 15.881C46.7018 16.0537 46.1955 16.14 45.6075 16.14Z" fill="#B78700"/>
<path d="M124.546 7.11111C124.546 3.11111 119.843 1.37037 117.491 1H59.1308H55.2828C54.0002 1.55556 54.6415 2.66667 55.2828 3.22222C70.6746 17 77.0879 20.8148 78.3705 21H97.6103H117.491C122.109 21 124.118 16.9259 124.546 14.8889V7.11111Z" fill="#CFD2F5" stroke="#CFD2F5" stroke-width="0.15"/>
<path d="M53.9997 2.11113L75.8047 19.8889L72.5981 20.4445L53.9997 2.11113Z" fill="white" stroke="white" stroke-width="0.15"/>
<path d="M79.0153 6.738C79.7433 6.738 80.3896 6.88733 80.9543 7.186C81.5189 7.48467 81.9716 7.886 82.3123 8.39C82.6576 8.894 82.8629 9.45167 82.9283 10.063H81.3323C81.2623 9.68033 81.1269 9.335 80.9263 9.027C80.7303 8.71433 80.4689 8.46933 80.1423 8.292C79.8156 8.11 79.4283 8.019 78.9803 8.019C78.4063 8.019 77.9186 8.15433 77.5173 8.425C77.1159 8.69567 76.8103 9.118 76.6003 9.692C76.3949 10.266 76.2923 11.0057 76.2923 11.911C76.2923 13.2783 76.5233 14.2793 76.9853 14.914C77.4473 15.544 78.1123 15.859 78.9803 15.859C79.4283 15.859 79.8156 15.7633 80.1423 15.572C80.4689 15.376 80.7303 15.117 80.9263 14.795C81.1269 14.4683 81.2623 14.1137 81.3323 13.731H82.9283C82.8723 14.1743 82.7556 14.6013 82.5783 15.012C82.4009 15.418 82.1536 15.782 81.8363 16.104C81.5236 16.426 81.1339 16.6803 80.6673 16.867C80.2006 17.049 79.6499 17.14 79.0153 17.14C78.1006 17.14 77.3166 16.93 76.6633 16.51C76.0099 16.0853 75.5083 15.4833 75.1583 14.704C74.8129 13.92 74.6403 12.982 74.6403 11.89C74.6403 10.8027 74.8129 9.87633 75.1583 9.111C75.5036 8.341 76.0029 7.753 76.6563 7.347C77.3096 6.941 78.0959 6.738 79.0153 6.738ZM86.6283 17.098C86.199 17.098 85.8537 17.042 85.5923 16.93C85.3357 16.818 85.1397 16.6687 85.0043 16.482C84.869 16.2907 84.778 16.076 84.7313 15.838C84.6893 15.5953 84.6683 15.3457 84.6683 15.089V6.598H86.1453V14.935C86.1453 15.271 86.2107 15.5277 86.3413 15.705C86.4767 15.8823 86.682 15.9827 86.9573 16.006L87.3353 16.02V16.972C87.2187 17.0093 87.0973 17.0397 86.9713 17.063C86.85 17.0863 86.7357 17.098 86.6283 17.098ZM91.7646 17.14C91.0879 17.14 90.4952 16.9953 89.9866 16.706C89.4826 16.412 89.0906 15.9873 88.8106 15.432C88.5352 14.8767 88.3976 14.2047 88.3976 13.416C88.3976 12.6553 88.5282 11.9903 88.7896 11.421C89.0556 10.8517 89.4406 10.4107 89.9446 10.098C90.4486 9.78067 91.0576 9.622 91.7716 9.622C92.4529 9.622 93.0432 9.77133 93.5426 10.07C94.0419 10.364 94.4292 10.7957 94.7046 11.365C94.9799 11.9297 95.1176 12.6133 95.1176 13.416C95.1176 14.1487 94.9869 14.795 94.7256 15.355C94.4689 15.915 94.0909 16.3537 93.5916 16.671C93.0969 16.9837 92.4879 17.14 91.7646 17.14ZM91.7716 15.985C92.1822 15.985 92.5252 15.8777 92.8006 15.663C93.0806 15.4437 93.2906 15.138 93.4306 14.746C93.5706 14.3493 93.6406 13.892 93.6406 13.374C93.6406 12.8933 93.5776 12.457 93.4516 12.065C93.3302 11.6683 93.1319 11.3533 92.8566 11.12C92.5812 10.8867 92.2196 10.77 91.7716 10.77C91.3516 10.77 91.0016 10.8773 90.7216 11.092C90.4416 11.302 90.2292 11.603 90.0846 11.995C89.9446 12.3823 89.8746 12.842 89.8746 13.374C89.8746 13.8453 89.9376 14.2793 90.0636 14.676C90.1896 15.0727 90.3926 15.39 90.6726 15.628C90.9526 15.866 91.3189 15.985 91.7716 15.985ZM99.3389 17.14C98.8349 17.14 98.3612 17.0607 97.9179 16.902C97.4792 16.7433 97.1106 16.4937 96.8119 16.153C96.5179 15.8123 96.3336 15.376 96.2589 14.844H97.5959C97.6566 15.1193 97.7709 15.348 97.9389 15.53C98.1116 15.7073 98.3169 15.8403 98.5549 15.929C98.7976 16.013 99.0566 16.055 99.3319 16.055C99.7892 16.055 100.158 15.9733 100.438 15.81C100.723 15.642 100.865 15.3853 100.865 15.04C100.865 14.7927 100.788 14.5943 100.634 14.445C100.485 14.2957 100.247 14.186 99.9199 14.116L98.4779 13.773C97.8806 13.633 97.4022 13.4113 97.0429 13.108C96.6836 12.8 96.5016 12.3707 96.4969 11.82C96.4969 11.3953 96.6019 11.0173 96.8119 10.686C97.0266 10.3547 97.3439 10.0957 97.7639 9.909C98.1839 9.71767 98.7066 9.622 99.3319 9.622C100.149 9.622 100.804 9.804 101.299 10.168C101.794 10.532 102.05 11.0593 102.069 11.75H100.774C100.727 11.4187 100.576 11.1597 100.319 10.973C100.067 10.7817 99.7332 10.686 99.3179 10.686C98.8886 10.686 98.5362 10.7723 98.2609 10.945C97.9856 11.113 97.8479 11.372 97.8479 11.722C97.8479 11.96 97.9482 12.149 98.1489 12.289C98.3496 12.4243 98.6506 12.5363 99.0519 12.625L100.424 12.968C100.779 13.0613 101.07 13.185 101.299 13.339C101.528 13.4883 101.707 13.654 101.838 13.836C101.969 14.018 102.06 14.207 102.111 14.403C102.167 14.599 102.195 14.7833 102.195 14.956C102.195 15.4133 102.078 15.8053 101.845 16.132C101.616 16.454 101.287 16.7037 100.858 16.881C100.433 17.0537 99.9269 17.14 99.3389 17.14ZM105.025 13.731C105.025 14.165 105.095 14.5547 105.235 14.9C105.38 15.2407 105.597 15.5113 105.886 15.712C106.175 15.908 106.535 16.006 106.964 16.006C107.393 16.006 107.764 15.908 108.077 15.712C108.394 15.516 108.602 15.2243 108.7 14.837H110.086C110.002 15.3317 109.804 15.7517 109.491 16.097C109.183 16.4423 108.81 16.7037 108.371 16.881C107.932 17.0537 107.473 17.14 106.992 17.14C106.306 17.14 105.702 16.993 105.179 16.699C104.656 16.4003 104.248 15.9757 103.954 15.425C103.665 14.8743 103.52 14.2187 103.52 13.458C103.52 12.7067 103.653 12.044 103.919 11.47C104.185 10.8913 104.57 10.4387 105.074 10.112C105.578 9.78533 106.185 9.622 106.894 9.622C107.594 9.622 108.182 9.77133 108.658 10.07C109.139 10.3687 109.503 10.7887 109.75 11.33C109.997 11.8667 110.121 12.5013 110.121 13.234V13.731H105.025ZM105.025 12.758H108.693C108.693 12.38 108.628 12.037 108.497 11.729C108.366 11.4163 108.166 11.1713 107.895 10.994C107.629 10.812 107.293 10.721 106.887 10.721C106.472 10.721 106.126 10.8213 105.851 11.022C105.576 11.2227 105.368 11.4793 105.228 11.792C105.093 12.1047 105.025 12.4267 105.025 12.758ZM114.432 17.14C113.48 17.14 112.731 16.8157 112.185 16.167C111.639 15.5137 111.366 14.5733 111.366 13.346C111.366 12.5947 111.476 11.9413 111.695 11.386C111.915 10.826 112.241 10.392 112.675 10.084C113.114 9.776 113.655 9.622 114.299 9.622C114.626 9.622 114.915 9.66167 115.167 9.741C115.424 9.82033 115.648 9.923 115.839 10.049C116.035 10.175 116.196 10.3103 116.322 10.455C116.453 10.5997 116.553 10.735 116.623 10.861V6.598H118.128V17H117.008L116.84 15.516C116.789 15.6747 116.71 15.8473 116.602 16.034C116.495 16.2207 116.348 16.398 116.161 16.566C115.979 16.734 115.746 16.8717 115.461 16.979C115.177 17.0863 114.834 17.14 114.432 17.14ZM114.719 16.013C115.391 16.013 115.877 15.803 116.175 15.383C116.474 14.9583 116.623 14.263 116.623 13.297C116.619 12.751 116.551 12.289 116.42 11.911C116.29 11.533 116.087 11.2483 115.811 11.057C115.541 10.861 115.184 10.763 114.74 10.763C114.185 10.763 113.732 10.9637 113.382 11.365C113.032 11.7617 112.857 12.4057 112.857 13.297C112.857 14.1743 113.016 14.8463 113.333 15.313C113.655 15.7797 114.117 16.013 114.719 16.013Z" fill="#434991"/>
</svg>
