<svg width="78" height="26" viewBox="0 0 78 26" fill="none" xmlns="http://www.w3.org/2000/svg">
<rect width="77" height="26" rx="8" fill="#E0F3E0"/>
<path d="M20.288 7.878H21.807V16.684H26.483V18H20.281L20.288 7.878ZM30.2755 18.14C29.8088 18.14 29.3935 18.056 29.0295 17.888C28.6701 17.72 28.3878 17.4773 28.1825 17.16C27.9771 16.8427 27.8745 16.46 27.8745 16.012C27.8745 15.2093 28.1591 14.6097 28.7285 14.213C29.2978 13.8163 30.2055 13.6063 31.4515 13.583L32.6415 13.548V13.023C32.6415 12.6077 32.5178 12.281 32.2705 12.043C32.0231 11.805 31.6428 11.6883 31.1295 11.693C30.7421 11.693 30.3968 11.7817 30.0935 11.959C29.7948 12.1363 29.5988 12.428 29.5055 12.834H28.2035C28.2315 12.3533 28.3691 11.9497 28.6165 11.623C28.8685 11.2917 29.2138 11.042 29.6525 10.874C30.0911 10.706 30.6068 10.622 31.1995 10.622C31.8575 10.622 32.3988 10.713 32.8235 10.895C33.2481 11.0723 33.5631 11.3337 33.7685 11.679C33.9785 12.0243 34.0835 12.4443 34.0835 12.939V18H32.8165L32.6975 16.67C32.4268 17.2253 32.0838 17.6103 31.6685 17.825C31.2578 18.035 30.7935 18.14 30.2755 18.14ZM30.7445 17.097C30.9731 17.097 31.1995 17.0573 31.4235 16.978C31.6475 16.894 31.8505 16.782 32.0325 16.642C32.2145 16.4973 32.3591 16.3363 32.4665 16.159C32.5785 15.9817 32.6368 15.7997 32.6415 15.613V14.416L31.6615 14.437C31.1621 14.4417 30.7375 14.493 30.3875 14.591C30.0421 14.689 29.7761 14.8407 29.5895 15.046C29.4075 15.2513 29.3165 15.5243 29.3165 15.865C29.3165 16.2523 29.4518 16.5557 29.7225 16.775C29.9931 16.9897 30.3338 17.097 30.7445 17.097ZM39.7267 11.84H38.1027L38.1097 16.159C38.1097 16.397 38.133 16.572 38.1797 16.684C38.231 16.7913 38.315 16.8613 38.4317 16.894C38.553 16.922 38.7163 16.936 38.9217 16.936H39.7687V17.909C39.6753 17.9463 39.5353 17.979 39.3487 18.007C39.1667 18.035 38.931 18.049 38.6417 18.049C38.105 18.049 37.6873 17.9767 37.3887 17.832C37.0947 17.6873 36.8893 17.4797 36.7727 17.209C36.6607 16.9337 36.6047 16.6023 36.6047 16.215V11.84H35.4287V10.762H36.6467L37.0177 8.634H38.1027V10.755H39.7267V11.84ZM42.4361 14.731C42.4361 15.165 42.5061 15.5547 42.6461 15.9C42.7908 16.2407 43.0078 16.5113 43.2971 16.712C43.5864 16.908 43.9458 17.006 44.3751 17.006C44.8044 17.006 45.1754 16.908 45.4881 16.712C45.8054 16.516 46.0131 16.2243 46.1111 15.837H47.4971C47.4131 16.3317 47.2148 16.7517 46.9021 17.097C46.5941 17.4423 46.2208 17.7037 45.7821 17.881C45.3434 18.0537 44.8838 18.14 44.4031 18.14C43.7171 18.14 43.1128 17.993 42.5901 17.699C42.0674 17.4003 41.6591 16.9757 41.3651 16.425C41.0758 15.8743 40.9311 15.2187 40.9311 14.458C40.9311 13.7067 41.0641 13.044 41.3301 12.47C41.5961 11.8913 41.9811 11.4387 42.4851 11.112C42.9891 10.7853 43.5958 10.622 44.3051 10.622C45.0051 10.622 45.5931 10.7713 46.0691 11.07C46.5498 11.3687 46.9138 11.7887 47.1611 12.33C47.4084 12.8667 47.5321 13.5013 47.5321 14.234V14.731H42.4361ZM42.4361 13.758H46.1041C46.1041 13.38 46.0388 13.037 45.9081 12.729C45.7774 12.4163 45.5768 12.1713 45.3061 11.994C45.0401 11.812 44.7041 11.721 44.2981 11.721C43.8828 11.721 43.5374 11.8213 43.2621 12.022C42.9868 12.2227 42.7791 12.4793 42.6391 12.792C42.5038 13.1047 42.4361 13.4267 42.4361 13.758ZM51.8164 18.14C51.3124 18.14 50.8388 18.0607 50.3954 17.902C49.9568 17.7433 49.5881 17.4937 49.2894 17.153C48.9954 16.8123 48.8111 16.376 48.7364 15.844H50.0734C50.1341 16.1193 50.2484 16.348 50.4164 16.53C50.5891 16.7073 50.7944 16.8403 51.0324 16.929C51.2751 17.013 51.5341 17.055 51.8094 17.055C52.2668 17.055 52.6354 16.9733 52.9154 16.81C53.2001 16.642 53.3424 16.3853 53.3424 16.04C53.3424 15.7927 53.2654 15.5943 53.1114 15.445C52.9621 15.2957 52.7241 15.186 52.3974 15.116L50.9554 14.773C50.3581 14.633 49.8798 14.4113 49.5204 14.108C49.1611 13.8 48.9791 13.3707 48.9744 12.82C48.9744 12.3953 49.0794 12.0173 49.2894 11.686C49.5041 11.3547 49.8214 11.0957 50.2414 10.909C50.6614 10.7177 51.1841 10.622 51.8094 10.622C52.6261 10.622 53.2818 10.804 53.7764 11.168C54.2711 11.532 54.5278 12.0593 54.5464 12.75H53.2514C53.2048 12.4187 53.0531 12.1597 52.7964 11.973C52.5444 11.7817 52.2108 11.686 51.7954 11.686C51.3661 11.686 51.0138 11.7723 50.7384 11.945C50.4631 12.113 50.3254 12.372 50.3254 12.722C50.3254 12.96 50.4258 13.149 50.6264 13.289C50.8271 13.4243 51.1281 13.5363 51.5294 13.625L52.9014 13.968C53.2561 14.0613 53.5478 14.185 53.7764 14.339C54.0051 14.4883 54.1848 14.654 54.3154 14.836C54.4461 15.018 54.5371 15.207 54.5884 15.403C54.6444 15.599 54.6724 15.7833 54.6724 15.956C54.6724 16.4133 54.5558 16.8053 54.3224 17.132C54.0938 17.454 53.7648 17.7037 53.3354 17.881C52.9108 18.0537 52.4044 18.14 51.8164 18.14ZM60.1114 11.84H58.4874L58.4944 16.159C58.4944 16.397 58.5178 16.572 58.5644 16.684C58.6158 16.7913 58.6998 16.8613 58.8164 16.894C58.9378 16.922 59.1011 16.936 59.3064 16.936H60.1534V17.909C60.0601 17.9463 59.9201 17.979 59.7334 18.007C59.5514 18.035 59.3158 18.049 59.0264 18.049C58.4898 18.049 58.0721 17.9767 57.7734 17.832C57.4794 17.6873 57.2741 17.4797 57.1574 17.209C57.0454 16.9337 56.9894 16.6023 56.9894 16.215V11.84H55.8134V10.762H57.0314L57.4024 8.634H58.4874V10.755H60.1114V11.84Z" fill="#2B840E"/>
</svg>
