<svg width="73" height="26" viewBox="0 0 73 26" fill="none" xmlns="http://www.w3.org/2000/svg">
<path d="M0 8C0 3.58172 3.58172 0 8 0H65C69.4183 0 73 3.58172 73 8V18C73 22.4183 69.4183 26 65 26H8C3.58172 26 0 22.4183 0 18V8Z" fill="#E0F3E0"/>
<path d="M25.208 18.34C24.2887 18.34 23.493 18.137 22.821 17.731C22.1537 17.3203 21.638 16.73 21.274 15.96C20.9147 15.1853 20.735 14.252 20.735 13.16C20.735 12.0586 20.917 11.1206 21.281 10.346C21.6497 9.56662 22.1677 8.97162 22.835 8.56095C23.507 8.14562 24.298 7.93795 25.208 7.93795C26.1133 7.93795 26.8973 8.14562 27.56 8.56095C28.2273 8.97162 28.7407 9.56662 29.1 10.346C29.464 11.1206 29.646 12.0586 29.646 13.16C29.646 14.252 29.4663 15.183 29.107 15.953C28.7477 16.723 28.2343 17.3133 27.567 17.724C26.9043 18.1346 26.118 18.34 25.208 18.34ZM25.208 17.059C25.796 17.059 26.2977 16.9236 26.713 16.653C27.133 16.3823 27.4527 15.96 27.672 15.386C27.8913 14.812 28.001 14.077 28.001 13.181C28.001 12.2616 27.889 11.5103 27.665 10.927C27.4457 10.3436 27.126 9.91428 26.706 9.63895C26.2907 9.35895 25.7913 9.21895 25.208 9.21895C24.6247 9.21895 24.1207 9.35895 23.696 9.63895C23.276 9.91895 22.9517 10.3506 22.723 10.934C22.4943 11.5173 22.38 12.2663 22.38 13.181C22.38 14.0816 22.4943 14.819 22.723 15.393C22.9517 15.9623 23.276 16.3823 23.696 16.653C24.1207 16.9236 24.6247 17.059 25.208 17.059ZM31.2689 20.454V10.962H32.7669L32.7809 12.166C32.8696 12.0073 32.9839 11.851 33.1239 11.697C33.2639 11.5383 33.4296 11.3936 33.6209 11.263C33.8169 11.1276 34.0386 11.0203 34.2859 10.941C34.5379 10.8616 34.8156 10.822 35.1189 10.822C35.6882 10.822 36.1899 10.955 36.6239 11.221C37.0626 11.4823 37.4032 11.886 37.6459 12.432C37.8932 12.9733 38.0169 13.6616 38.0169 14.497C38.0169 15.337 37.8932 16.0416 37.6459 16.611C37.4032 17.1803 37.0556 17.612 36.6029 17.906C36.1502 18.1953 35.6136 18.34 34.9929 18.34C34.6942 18.34 34.4259 18.298 34.1879 18.214C33.9499 18.13 33.7399 18.0203 33.5579 17.885C33.3759 17.745 33.2196 17.5956 33.0889 17.437C32.9629 17.2736 32.8579 17.1126 32.7739 16.954V20.454H31.2689ZM34.6779 17.199C35.2332 17.199 35.6882 16.9843 36.0429 16.555C36.4022 16.121 36.5819 15.4443 36.5819 14.525C36.5819 13.7363 36.4162 13.1133 36.0849 12.656C35.7582 12.194 35.2892 11.963 34.6779 11.963C34.0479 11.963 33.5719 12.2033 33.2499 12.684C32.9279 13.16 32.7669 13.7736 32.7669 14.525C32.7669 15.015 32.8369 15.463 32.9769 15.869C33.1216 16.2703 33.3362 16.5923 33.6209 16.835C33.9056 17.0776 34.2579 17.199 34.6779 17.199ZM40.7564 14.931C40.7564 15.365 40.8264 15.7546 40.9664 16.1C41.1111 16.4406 41.3281 16.7113 41.6174 16.912C41.9068 17.108 42.2661 17.206 42.6954 17.206C43.1248 17.206 43.4958 17.108 43.8084 16.912C44.1258 16.716 44.3334 16.4243 44.4314 16.037H45.8174C45.7334 16.5316 45.5351 16.9516 45.2224 17.297C44.9144 17.6423 44.5411 17.9036 44.1024 18.081C43.6638 18.2536 43.2041 18.34 42.7234 18.34C42.0374 18.34 41.4331 18.193 40.9104 17.899C40.3878 17.6003 39.9794 17.1756 39.6854 16.625C39.3961 16.0743 39.2514 15.4186 39.2514 14.658C39.2514 13.9066 39.3844 13.244 39.6504 12.67C39.9164 12.0913 40.3014 11.6386 40.8054 11.312C41.3094 10.9853 41.9161 10.822 42.6254 10.822C43.3254 10.822 43.9134 10.9713 44.3894 11.27C44.8701 11.5686 45.2341 11.9886 45.4814 12.53C45.7288 13.0666 45.8524 13.7013 45.8524 14.434V14.931H40.7564ZM40.7564 13.958H44.4244C44.4244 13.58 44.3591 13.237 44.2284 12.929C44.0978 12.6163 43.8971 12.3713 43.6264 12.194C43.3604 12.012 43.0244 11.921 42.6184 11.921C42.2031 11.921 41.8578 12.0213 41.5824 12.222C41.3071 12.4226 41.0994 12.6793 40.9594 12.992C40.8241 13.3046 40.7564 13.6266 40.7564 13.958ZM47.5248 18.2V10.962H48.9878V12.005C49.1044 11.809 49.2608 11.6246 49.4568 11.452C49.6574 11.2793 49.9024 11.1393 50.1918 11.032C50.4858 10.9246 50.8241 10.871 51.2068 10.871C51.6594 10.871 52.0771 10.962 52.4598 11.144C52.8471 11.3213 53.1574 11.6013 53.3908 11.984C53.6241 12.362 53.7408 12.852 53.7408 13.454V18.2H52.2428V13.615C52.2428 13.097 52.1028 12.712 51.8228 12.46C51.5474 12.208 51.1904 12.082 50.7518 12.082C50.4578 12.082 50.1778 12.131 49.9118 12.229C49.6458 12.327 49.4311 12.4763 49.2678 12.677C49.1044 12.873 49.0228 13.1203 49.0228 13.419V18.2H47.5248Z" fill="#2B840E"/>
</svg>
