<svg width="124" height="22" viewBox="0 0 124 22" fill="none" xmlns="http://www.w3.org/2000/svg">
<path d="M1 14.8889C1 18.8889 5.70305 20.6296 8.05457 21H66.4151H70.2631C71.5457 20.4444 70.9044 19.3333 70.2631 18.7778C54.8713 5 48.458 1.18519 47.1754 1H27.9356H8.05457C3.43703 1 1.42755 5.07407 1 7.11111V14.8889Z" fill="#FFC6C6" stroke="#FFC6C6" stroke-width="0.15"/>
<path d="M71.5462 19.8889L49.7412 2.1111L52.9478 1.55554L71.5462 19.8889Z" fill="white" stroke="white" stroke-width="0.15"/>
<path d="M20.7312 17V6.878H24.2382C24.9615 6.878 25.6079 7.00167 26.1772 7.249C26.7512 7.49633 27.2015 7.86033 27.5282 8.341C27.8595 8.82167 28.0252 9.412 28.0252 10.112C28.0252 10.784 27.8735 11.358 27.5702 11.834C27.2715 12.3053 26.8515 12.667 26.3102 12.919C25.7735 13.1663 25.1505 13.29 24.4412 13.29H22.2572V17H20.7312ZM22.2502 12.065H24.3992C25.0432 12.065 25.5682 11.8807 25.9742 11.512C26.3802 11.1387 26.5832 10.644 26.5832 10.028C26.5832 9.40267 26.3732 8.92433 25.9532 8.593C25.5332 8.257 24.9965 8.089 24.3432 8.089H22.2502V12.065ZM37.1059 17H35.5309L33.7389 12.765H31.1979V17H29.6999V6.878H33.7179C34.4693 6.878 35.0923 6.99467 35.5869 7.228C36.0816 7.45667 36.4503 7.78333 36.6929 8.208C36.9356 8.63267 37.0569 9.13433 37.0569 9.713C37.0569 10.259 36.9636 10.714 36.7769 11.078C36.5949 11.442 36.3569 11.7383 36.0629 11.967C35.7736 12.1957 35.4679 12.3753 35.1459 12.506L37.1059 17ZM33.3119 11.554C34.0166 11.554 34.5626 11.4023 34.9499 11.099C35.3373 10.791 35.5309 10.3523 35.5309 9.783C35.5309 9.223 35.3536 8.79833 34.9989 8.509C34.6489 8.21967 34.1729 8.075 33.5709 8.075H31.1979V11.554H33.3119Z" fill="#BB0000"/>
<path d="M123.641 7.11111C123.641 3.11111 118.938 1.37037 116.586 1H58.2255H54.3776C53.0949 1.55556 53.7362 2.66667 54.3776 3.22222C69.7694 17 76.1826 20.8148 77.4653 21H96.705H116.586C121.204 21 123.213 16.9259 123.641 14.8889V7.11111Z" fill="#CFD2F5" stroke="#CFD2F5" stroke-width="0.15"/>
<path d="M53.0944 2.11113L74.8994 19.8889L71.6928 20.4445L53.0944 2.11113Z" fill="white" stroke="white" stroke-width="0.15"/>
<path d="M78.11 6.738C78.838 6.738 79.4843 6.88733 80.049 7.186C80.6137 7.48467 81.0663 7.886 81.407 8.39C81.7523 8.894 81.9577 9.45167 82.023 10.063H80.427C80.357 9.68033 80.2217 9.335 80.021 9.027C79.825 8.71433 79.5637 8.46933 79.237 8.292C78.9103 8.11 78.523 8.019 78.075 8.019C77.501 8.019 77.0133 8.15433 76.612 8.425C76.2107 8.69567 75.905 9.118 75.695 9.692C75.4897 10.266 75.387 11.0057 75.387 11.911C75.387 13.2783 75.618 14.2793 76.08 14.914C76.542 15.544 77.207 15.859 78.075 15.859C78.523 15.859 78.9103 15.7633 79.237 15.572C79.5637 15.376 79.825 15.117 80.021 14.795C80.2217 14.4683 80.357 14.1137 80.427 13.731H82.023C81.967 14.1743 81.8503 14.6013 81.673 15.012C81.4957 15.418 81.2483 15.782 80.931 16.104C80.6183 16.426 80.2287 16.6803 79.762 16.867C79.2953 17.049 78.7447 17.14 78.11 17.14C77.1953 17.14 76.4113 16.93 75.758 16.51C75.1047 16.0853 74.603 15.4833 74.253 14.704C73.9077 13.92 73.735 12.982 73.735 11.89C73.735 10.8027 73.9077 9.87633 74.253 9.111C74.5983 8.341 75.0977 7.753 75.751 7.347C76.4043 6.941 77.1907 6.738 78.11 6.738ZM85.723 17.098C85.2937 17.098 84.9484 17.042 84.687 16.93C84.4304 16.818 84.2344 16.6687 84.099 16.482C83.9637 16.2907 83.8727 16.076 83.826 15.838C83.784 15.5953 83.763 15.3457 83.763 15.089V6.598H85.24V14.935C85.24 15.271 85.3054 15.5277 85.436 15.705C85.5714 15.8823 85.7767 15.9827 86.052 16.006L86.43 16.02V16.972C86.3134 17.0093 86.192 17.0397 86.066 17.063C85.9447 17.0863 85.8304 17.098 85.723 17.098ZM90.8593 17.14C90.1826 17.14 89.59 16.9953 89.0813 16.706C88.5773 16.412 88.1853 15.9873 87.9053 15.432C87.63 14.8767 87.4923 14.2047 87.4923 13.416C87.4923 12.6553 87.623 11.9903 87.8843 11.421C88.1503 10.8517 88.5353 10.4107 89.0393 10.098C89.5433 9.78067 90.1523 9.622 90.8663 9.622C91.5476 9.622 92.138 9.77133 92.6373 10.07C93.1366 10.364 93.524 10.7957 93.7993 11.365C94.0746 11.9297 94.2123 12.6133 94.2123 13.416C94.2123 14.1487 94.0816 14.795 93.8203 15.355C93.5636 15.915 93.1856 16.3537 92.6863 16.671C92.1916 16.9837 91.5826 17.14 90.8593 17.14ZM90.8663 15.985C91.277 15.985 91.62 15.8777 91.8953 15.663C92.1753 15.4437 92.3853 15.138 92.5253 14.746C92.6653 14.3493 92.7353 13.892 92.7353 13.374C92.7353 12.8933 92.6723 12.457 92.5463 12.065C92.425 11.6683 92.2266 11.3533 91.9513 11.12C91.676 10.8867 91.3143 10.77 90.8663 10.77C90.4463 10.77 90.0963 10.8773 89.8163 11.092C89.5363 11.302 89.324 11.603 89.1793 11.995C89.0393 12.3823 88.9693 12.842 88.9693 13.374C88.9693 13.8453 89.0323 14.2793 89.1583 14.676C89.2843 15.0727 89.4873 15.39 89.7673 15.628C90.0473 15.866 90.4136 15.985 90.8663 15.985ZM98.4336 17.14C97.9296 17.14 97.456 17.0607 97.0126 16.902C96.574 16.7433 96.2053 16.4937 95.9066 16.153C95.6126 15.8123 95.4283 15.376 95.3536 14.844H96.6906C96.7513 15.1193 96.8656 15.348 97.0336 15.53C97.2063 15.7073 97.4116 15.8403 97.6496 15.929C97.8923 16.013 98.1513 16.055 98.4266 16.055C98.884 16.055 99.2526 15.9733 99.5326 15.81C99.8173 15.642 99.9596 15.3853 99.9596 15.04C99.9596 14.7927 99.8826 14.5943 99.7286 14.445C99.5793 14.2957 99.3413 14.186 99.0146 14.116L97.5726 13.773C96.9753 13.633 96.497 13.4113 96.1376 13.108C95.7783 12.8 95.5963 12.3707 95.5916 11.82C95.5916 11.3953 95.6966 11.0173 95.9066 10.686C96.1213 10.3547 96.4386 10.0957 96.8586 9.909C97.2786 9.71767 97.8013 9.622 98.4266 9.622C99.2433 9.622 99.899 9.804 100.394 10.168C100.888 10.532 101.145 11.0593 101.164 11.75H99.8686C99.822 11.4187 99.6703 11.1597 99.4136 10.973C99.1616 10.7817 98.828 10.686 98.4126 10.686C97.9833 10.686 97.631 10.7723 97.3556 10.945C97.0803 11.113 96.9426 11.372 96.9426 11.722C96.9426 11.96 97.043 12.149 97.2436 12.289C97.4443 12.4243 97.7453 12.5363 98.1466 12.625L99.5186 12.968C99.8733 13.0613 100.165 13.185 100.394 13.339C100.622 13.4883 100.802 13.654 100.933 13.836C101.063 14.018 101.154 14.207 101.206 14.403C101.262 14.599 101.29 14.7833 101.29 14.956C101.29 15.4133 101.173 15.8053 100.94 16.132C100.711 16.454 100.382 16.7037 99.9526 16.881C99.528 17.0537 99.0216 17.14 98.4336 17.14ZM104.12 13.731C104.12 14.165 104.19 14.5547 104.33 14.9C104.474 15.2407 104.691 15.5113 104.981 15.712C105.27 15.908 105.629 16.006 106.059 16.006C106.488 16.006 106.859 15.908 107.172 15.712C107.489 15.516 107.697 15.2243 107.795 14.837H109.181C109.097 15.3317 108.898 15.7517 108.586 16.097C108.278 16.4423 107.904 16.7037 107.466 16.881C107.027 17.0537 106.567 17.14 106.087 17.14C105.401 17.14 104.796 16.993 104.274 16.699C103.751 16.4003 103.343 15.9757 103.049 15.425C102.759 14.8743 102.615 14.2187 102.615 13.458C102.615 12.7067 102.748 12.044 103.014 11.47C103.28 10.8913 103.665 10.4387 104.169 10.112C104.673 9.78533 105.279 9.622 105.989 9.622C106.689 9.622 107.277 9.77133 107.753 10.07C108.233 10.3687 108.597 10.7887 108.845 11.33C109.092 11.8667 109.216 12.5013 109.216 13.234V13.731H104.12ZM104.12 12.758H107.788C107.788 12.38 107.722 12.037 107.592 11.729C107.461 11.4163 107.26 11.1713 106.99 10.994C106.724 10.812 106.388 10.721 105.982 10.721C105.566 10.721 105.221 10.8213 104.946 11.022C104.67 11.2227 104.463 11.4793 104.323 11.792C104.187 12.1047 104.12 12.4267 104.12 12.758ZM113.527 17.14C112.575 17.14 111.826 16.8157 111.28 16.167C110.734 15.5137 110.461 14.5733 110.461 13.346C110.461 12.5947 110.571 11.9413 110.79 11.386C111.009 10.826 111.336 10.392 111.77 10.084C112.209 9.776 112.75 9.622 113.394 9.622C113.721 9.622 114.01 9.66167 114.262 9.741C114.519 9.82033 114.743 9.923 114.934 10.049C115.13 10.175 115.291 10.3103 115.417 10.455C115.548 10.5997 115.648 10.735 115.718 10.861V6.598H117.223V17H116.103L115.935 15.516C115.884 15.6747 115.804 15.8473 115.697 16.034C115.59 16.2207 115.443 16.398 115.256 16.566C115.074 16.734 114.841 16.8717 114.556 16.979C114.271 17.0863 113.928 17.14 113.527 17.14ZM113.814 16.013C114.486 16.013 114.971 15.803 115.27 15.383C115.569 14.9583 115.718 14.263 115.718 13.297C115.713 12.751 115.646 12.289 115.515 11.911C115.384 11.533 115.181 11.2483 114.906 11.057C114.635 10.861 114.278 10.763 113.835 10.763C113.28 10.763 112.827 10.9637 112.477 11.365C112.127 11.7617 111.952 12.4057 111.952 13.297C111.952 14.1743 112.111 14.8463 112.428 15.313C112.75 15.7797 113.212 16.013 113.814 16.013Z" fill="#434991"/>
</svg>
