<svg width="108" height="26" viewBox="0 0 108 26" fill="none" xmlns="http://www.w3.org/2000/svg">
<rect width="108" height="26" rx="8" fill="#E9D3B9"/>
<path d="M17.281 18V7.878H20.788C21.5113 7.878 22.1577 8.00167 22.727 8.249C23.301 8.49633 23.7513 8.86033 24.078 9.341C24.4093 9.82167 24.575 10.412 24.575 11.112C24.575 11.784 24.4233 12.358 24.12 12.834C23.8213 13.3053 23.4013 13.667 22.86 13.919C22.3233 14.1663 21.7003 14.29 20.991 14.29H18.807V18H17.281ZM18.8 13.065H20.949C21.593 13.065 22.118 12.8807 22.524 12.512C22.93 12.1387 23.133 11.644 23.133 11.028C23.133 10.4027 22.923 9.92433 22.503 9.593C22.083 9.257 21.5463 9.089 20.893 9.089H18.8V13.065ZM25.9838 18V10.762H27.4188V12.246C27.5401 11.8913 27.7081 11.595 27.9228 11.357C28.1421 11.1143 28.3964 10.9323 28.6858 10.811C28.9751 10.685 29.2808 10.622 29.6028 10.622C29.7008 10.622 29.7941 10.629 29.8828 10.643C29.9714 10.6523 30.0414 10.671 30.0928 10.699V12.141C30.0321 12.113 29.9528 12.0943 29.8548 12.085C29.7614 12.0757 29.6798 12.0687 29.6098 12.064C29.2924 12.0407 29.0031 12.057 28.7418 12.113C28.4804 12.169 28.2541 12.2623 28.0628 12.393C27.8761 12.5237 27.7314 12.694 27.6288 12.904C27.5308 13.114 27.4818 13.3613 27.4818 13.646V18H25.9838ZM32.4908 14.731C32.4908 15.165 32.5608 15.5547 32.7008 15.9C32.8455 16.2407 33.0625 16.5113 33.3518 16.712C33.6411 16.908 34.0005 17.006 34.4298 17.006C34.8591 17.006 35.2301 16.908 35.5428 16.712C35.8601 16.516 36.0678 16.2243 36.1658 15.837H37.5518C37.4678 16.3317 37.2695 16.7517 36.9568 17.097C36.6488 17.4423 36.2755 17.7037 35.8368 17.881C35.3981 18.0537 34.9385 18.14 34.4578 18.14C33.7718 18.14 33.1675 17.993 32.6448 17.699C32.1221 17.4003 31.7138 16.9757 31.4198 16.425C31.1305 15.8743 30.9858 15.2187 30.9858 14.458C30.9858 13.7067 31.1188 13.044 31.3848 12.47C31.6508 11.8913 32.0358 11.4387 32.5398 11.112C33.0438 10.7853 33.6505 10.622 34.3598 10.622C35.0598 10.622 35.6478 10.7713 36.1238 11.07C36.6045 11.3687 36.9685 11.7887 37.2158 12.33C37.4631 12.8667 37.5868 13.5013 37.5868 14.234V14.731H32.4908ZM32.4908 13.758H36.1588C36.1588 13.38 36.0935 13.037 35.9628 12.729C35.8321 12.4163 35.6315 12.1713 35.3608 11.994C35.0948 11.812 34.7588 11.721 34.3528 11.721C33.9375 11.721 33.5921 11.8213 33.3168 12.022C33.0415 12.2227 32.8338 12.4793 32.6938 12.792C32.5585 13.1047 32.4908 13.4267 32.4908 13.758ZM42.8679 13.814V14.955L39.2419 14.969V13.821L42.8679 13.814ZM44.7416 18V10.762H46.1766V12.246C46.2979 11.8913 46.4659 11.595 46.6806 11.357C46.8999 11.1143 47.1542 10.9323 47.4436 10.811C47.7329 10.685 48.0386 10.622 48.3606 10.622C48.4586 10.622 48.5519 10.629 48.6406 10.643C48.7292 10.6523 48.7992 10.671 48.8506 10.699V12.141C48.7899 12.113 48.7106 12.0943 48.6126 12.085C48.5192 12.0757 48.4376 12.0687 48.3676 12.064C48.0502 12.0407 47.7609 12.057 47.4996 12.113C47.2382 12.169 47.0119 12.2623 46.8206 12.393C46.6339 12.5237 46.4892 12.694 46.3866 12.904C46.2886 13.114 46.2396 13.3613 46.2396 13.646V18H44.7416ZM51.2486 14.731C51.2486 15.165 51.3186 15.5547 51.4586 15.9C51.6033 16.2407 51.8203 16.5113 52.1096 16.712C52.3989 16.908 52.7583 17.006 53.1876 17.006C53.6169 17.006 53.9879 16.908 54.3006 16.712C54.6179 16.516 54.8256 16.2243 54.9236 15.837H56.3096C56.2256 16.3317 56.0273 16.7517 55.7146 17.097C55.4066 17.4423 55.0333 17.7037 54.5946 17.881C54.1559 18.0537 53.6963 18.14 53.2156 18.14C52.5296 18.14 51.9253 17.993 51.4026 17.699C50.8799 17.4003 50.4716 16.9757 50.1776 16.425C49.8883 15.8743 49.7436 15.2187 49.7436 14.458C49.7436 13.7067 49.8766 13.044 50.1426 12.47C50.4086 11.8913 50.7936 11.4387 51.2976 11.112C51.8016 10.7853 52.4083 10.622 53.1176 10.622C53.8176 10.622 54.4056 10.7713 54.8816 11.07C55.3623 11.3687 55.7263 11.7887 55.9736 12.33C56.2209 12.8667 56.3446 13.5013 56.3446 14.234V14.731H51.2486ZM51.2486 13.758H54.9166C54.9166 13.38 54.8513 13.037 54.7206 12.729C54.5899 12.4163 54.3893 12.1713 54.1186 11.994C53.8526 11.812 53.5166 11.721 53.1106 11.721C52.6953 11.721 52.3499 11.8213 52.0746 12.022C51.7993 12.2227 51.5916 12.4793 51.4516 12.792C51.3163 13.1047 51.2486 13.4267 51.2486 13.758ZM59.977 18.098C59.5476 18.098 59.2023 18.042 58.941 17.93C58.6843 17.818 58.4883 17.6687 58.353 17.482C58.2176 17.2907 58.1266 17.076 58.08 16.838C58.038 16.5953 58.017 16.3457 58.017 16.089V7.598H59.494V15.935C59.494 16.271 59.5593 16.5277 59.69 16.705C59.8253 16.8823 60.0306 16.9827 60.306 17.006L60.684 17.02V17.972C60.5673 18.0093 60.446 18.0397 60.32 18.063C60.1986 18.0863 60.0843 18.098 59.977 18.098ZM63.3072 14.731C63.3072 15.165 63.3772 15.5547 63.5172 15.9C63.6619 16.2407 63.8789 16.5113 64.1682 16.712C64.4575 16.908 64.8169 17.006 65.2462 17.006C65.6755 17.006 66.0465 16.908 66.3592 16.712C66.6765 16.516 66.8842 16.2243 66.9822 15.837H68.3682C68.2842 16.3317 68.0859 16.7517 67.7732 17.097C67.4652 17.4423 67.0919 17.7037 66.6532 17.881C66.2145 18.0537 65.7549 18.14 65.2742 18.14C64.5882 18.14 63.9839 17.993 63.4612 17.699C62.9385 17.4003 62.5302 16.9757 62.2362 16.425C61.9469 15.8743 61.8022 15.2187 61.8022 14.458C61.8022 13.7067 61.9352 13.044 62.2012 12.47C62.4672 11.8913 62.8522 11.4387 63.3562 11.112C63.8602 10.7853 64.4669 10.622 65.1762 10.622C65.8762 10.622 66.4642 10.7713 66.9402 11.07C67.4209 11.3687 67.7849 11.7887 68.0322 12.33C68.2795 12.8667 68.4032 13.5013 68.4032 14.234V14.731H63.3072ZM63.3072 13.758H66.9752C66.9752 13.38 66.9099 13.037 66.7792 12.729C66.6485 12.4163 66.4479 12.1713 66.1772 11.994C65.9112 11.812 65.5752 11.721 65.1692 11.721C64.7539 11.721 64.4085 11.8213 64.1332 12.022C63.8579 12.2227 63.6502 12.4793 63.5102 12.792C63.3749 13.1047 63.3072 13.4267 63.3072 13.758ZM72.0235 18.14C71.5568 18.14 71.1415 18.056 70.7775 17.888C70.4182 17.72 70.1358 17.4773 69.9305 17.16C69.7252 16.8427 69.6225 16.46 69.6225 16.012C69.6225 15.2093 69.9072 14.6097 70.4765 14.213C71.0458 13.8163 71.9535 13.6063 73.1995 13.583L74.3895 13.548V13.023C74.3895 12.6077 74.2658 12.281 74.0185 12.043C73.7712 11.805 73.3908 11.6883 72.8775 11.693C72.4902 11.693 72.1448 11.7817 71.8415 11.959C71.5428 12.1363 71.3468 12.428 71.2535 12.834H69.9515C69.9795 12.3533 70.1172 11.9497 70.3645 11.623C70.6165 11.2917 70.9618 11.042 71.4005 10.874C71.8392 10.706 72.3548 10.622 72.9475 10.622C73.6055 10.622 74.1468 10.713 74.5715 10.895C74.9962 11.0723 75.3112 11.3337 75.5165 11.679C75.7265 12.0243 75.8315 12.4443 75.8315 12.939V18H74.5645L74.4455 16.67C74.1748 17.2253 73.8318 17.6103 73.4165 17.825C73.0058 18.035 72.5415 18.14 72.0235 18.14ZM72.4925 17.097C72.7212 17.097 72.9475 17.0573 73.1715 16.978C73.3955 16.894 73.5985 16.782 73.7805 16.642C73.9625 16.4973 74.1072 16.3363 74.2145 16.159C74.3265 15.9817 74.3848 15.7997 74.3895 15.613V14.416L73.4095 14.437C72.9102 14.4417 72.4855 14.493 72.1355 14.591C71.7902 14.689 71.5242 14.8407 71.3375 15.046C71.1555 15.2513 71.0645 15.5243 71.0645 15.865C71.0645 16.2523 71.1998 16.5557 71.4705 16.775C71.7412 16.9897 72.0818 17.097 72.4925 17.097ZM80.4805 18.14C79.9765 18.14 79.5028 18.0607 79.0595 17.902C78.6208 17.7433 78.2522 17.4937 77.9535 17.153C77.6595 16.8123 77.4752 16.376 77.4005 15.844H78.7375C78.7982 16.1193 78.9125 16.348 79.0805 16.53C79.2532 16.7073 79.4585 16.8403 79.6965 16.929C79.9392 17.013 80.1982 17.055 80.4735 17.055C80.9308 17.055 81.2995 16.9733 81.5795 16.81C81.8642 16.642 82.0065 16.3853 82.0065 16.04C82.0065 15.7927 81.9295 15.5943 81.7755 15.445C81.6262 15.2957 81.3882 15.186 81.0615 15.116L79.6195 14.773C79.0222 14.633 78.5438 14.4113 78.1845 14.108C77.8252 13.8 77.6432 13.3707 77.6385 12.82C77.6385 12.3953 77.7435 12.0173 77.9535 11.686C78.1682 11.3547 78.4855 11.0957 78.9055 10.909C79.3255 10.7177 79.8482 10.622 80.4735 10.622C81.2902 10.622 81.9458 10.804 82.4405 11.168C82.9352 11.532 83.1918 12.0593 83.2105 12.75H81.9155C81.8688 12.4187 81.7172 12.1597 81.4605 11.973C81.2085 11.7817 80.8748 11.686 80.4595 11.686C80.0302 11.686 79.6778 11.7723 79.4025 11.945C79.1272 12.113 78.9895 12.372 78.9895 12.722C78.9895 12.96 79.0898 13.149 79.2905 13.289C79.4912 13.4243 79.7922 13.5363 80.1935 13.625L81.5655 13.968C81.9202 14.0613 82.2118 14.185 82.4405 14.339C82.6692 14.4883 82.8488 14.654 82.9795 14.836C83.1102 15.018 83.2012 15.207 83.2525 15.403C83.3085 15.599 83.3365 15.7833 83.3365 15.956C83.3365 16.4133 83.2198 16.8053 82.9865 17.132C82.7578 17.454 82.4288 17.7037 81.9995 17.881C81.5748 18.0537 81.0685 18.14 80.4805 18.14ZM86.1666 14.731C86.1666 15.165 86.2366 15.5547 86.3766 15.9C86.5212 16.2407 86.7382 16.5113 87.0276 16.712C87.3169 16.908 87.6762 17.006 88.1056 17.006C88.5349 17.006 88.9059 16.908 89.2186 16.712C89.5359 16.516 89.7436 16.2243 89.8416 15.837H91.2276C91.1436 16.3317 90.9452 16.7517 90.6326 17.097C90.3246 17.4423 89.9512 17.7037 89.5126 17.881C89.0739 18.0537 88.6142 18.14 88.1336 18.14C87.4476 18.14 86.8432 17.993 86.3206 17.699C85.7979 17.4003 85.3896 16.9757 85.0956 16.425C84.8062 15.8743 84.6616 15.2187 84.6616 14.458C84.6616 13.7067 84.7946 13.044 85.0606 12.47C85.3266 11.8913 85.7116 11.4387 86.2156 11.112C86.7196 10.7853 87.3262 10.622 88.0356 10.622C88.7356 10.622 89.3236 10.7713 89.7996 11.07C90.2802 11.3687 90.6442 11.7887 90.8916 12.33C91.1389 12.8667 91.2626 13.5013 91.2626 14.234V14.731H86.1666ZM86.1666 13.758H89.8346C89.8346 13.38 89.7692 13.037 89.6386 12.729C89.5079 12.4163 89.3072 12.1713 89.0366 11.994C88.7706 11.812 88.4346 11.721 88.0286 11.721C87.6132 11.721 87.2679 11.8213 86.9926 12.022C86.7172 12.2227 86.5096 12.4793 86.3696 12.792C86.2342 13.1047 86.1666 13.4267 86.1666 13.758Z" fill="#BC6703"/>
</svg>
