<svg width="127" height="22" viewBox="0 0 127 22" fill="none" xmlns="http://www.w3.org/2000/svg">
<path d="M1 14.8889C1 18.8889 5.79351 20.6296 8.19027 21H67.6734H71.5953C72.9026 20.4444 72.249 19.3333 71.5953 18.7778C55.9075 5 49.3709 1.18519 48.0636 1H28.4537H8.19027C3.48391 1 1.43577 5.07407 1 7.11111V14.8889Z" fill="#FFC6C6" stroke="#FFC6C6" stroke-width="0.15"/>
<path d="M72.9032 19.8889L50.6787 2.1111L53.947 1.55554L72.9032 19.8889Z" fill="white" stroke="white" stroke-width="0.15"/>
<path d="M20.281 16V5.878H23.788C24.5113 5.878 25.1577 6.00167 25.727 6.249C26.301 6.49633 26.7513 6.86033 27.078 7.341C27.4093 7.82167 27.575 8.412 27.575 9.112C27.575 9.784 27.4233 10.358 27.12 10.834C26.8213 11.3053 26.4013 11.667 25.86 11.919C25.3233 12.1663 24.7003 12.29 23.991 12.29H21.807V16H20.281ZM21.8 11.065H23.949C24.593 11.065 25.118 10.8807 25.524 10.512C25.93 10.1387 26.133 9.644 26.133 9.028C26.133 8.40267 25.923 7.92433 25.503 7.593C25.083 7.257 24.5463 7.089 23.893 7.089H21.8V11.065ZM36.6558 16H35.0808L33.2888 11.765H30.7478V16H29.2498V5.878H33.2678C34.0191 5.878 34.6421 5.99467 35.1368 6.228C35.6314 6.45667 36.0001 6.78333 36.2428 7.208C36.4854 7.63267 36.6068 8.13433 36.6068 8.713C36.6068 9.259 36.5134 9.714 36.3268 10.078C36.1448 10.442 35.9068 10.7383 35.6128 10.967C35.3234 11.1957 35.0178 11.3753 34.6958 11.506L36.6558 16ZM32.8618 10.554C33.5664 10.554 34.1124 10.4023 34.4998 10.099C34.8871 9.791 35.0808 9.35233 35.0808 8.783C35.0808 8.223 34.9034 7.79833 34.5488 7.509C34.1988 7.21967 33.7228 7.075 33.1208 7.075H30.7478V10.554H32.8618Z" fill="#BB0000"/>
<path d="M125.999 7.11111C125.999 3.11111 121.206 1.37037 118.809 1H59.3257H55.4037C54.0964 1.55556 54.75 2.66667 55.4037 3.22222C71.0915 17 77.6281 20.8148 78.9355 21H98.5453H118.809C123.515 21 125.563 16.9259 125.999 14.8889V7.11111Z" fill="#E0F3E0" stroke="#E0F3E0" stroke-width="0.15"/>
<path d="M54.0959 2.11113L76.3203 19.8889L73.052 20.4445L54.0959 2.11113Z" fill="white" stroke="white" stroke-width="0.15"/>
<path d="M82.5351 16.14C81.6158 16.14 80.8201 15.937 80.1481 15.531C79.4808 15.1203 78.9651 14.53 78.6011 13.76C78.2418 12.9853 78.0621 12.052 78.0621 10.96C78.0621 9.85867 78.2441 8.92067 78.6081 8.146C78.9768 7.36667 79.4948 6.77167 80.1621 6.361C80.8341 5.94567 81.6251 5.738 82.5351 5.738C83.4405 5.738 84.2245 5.94567 84.8871 6.361C85.5545 6.77167 86.0678 7.36667 86.4271 8.146C86.7911 8.92067 86.9731 9.85867 86.9731 10.96C86.9731 12.052 86.7935 12.983 86.4341 13.753C86.0748 14.523 85.5615 15.1133 84.8941 15.524C84.2315 15.9347 83.4451 16.14 82.5351 16.14ZM82.5351 14.859C83.1231 14.859 83.6248 14.7237 84.0401 14.453C84.4601 14.1823 84.7798 13.76 84.9991 13.186C85.2185 12.612 85.3281 11.877 85.3281 10.981C85.3281 10.0617 85.2161 9.31033 84.9921 8.727C84.7728 8.14367 84.4531 7.71433 84.0331 7.439C83.6178 7.159 83.1185 7.019 82.5351 7.019C81.9518 7.019 81.4478 7.159 81.0231 7.439C80.6031 7.719 80.2788 8.15067 80.0501 8.734C79.8215 9.31733 79.7071 10.0663 79.7071 10.981C79.7071 11.8817 79.8215 12.619 80.0501 13.193C80.2788 13.7623 80.6031 14.1823 81.0231 14.453C81.4478 14.7237 81.9518 14.859 82.5351 14.859ZM88.5961 18.254V8.762H90.0941L90.1081 9.966C90.1967 9.80733 90.3111 9.651 90.4511 9.497C90.5911 9.33833 90.7567 9.19367 90.9481 9.063C91.1441 8.92767 91.3657 8.82033 91.6131 8.741C91.8651 8.66167 92.1427 8.622 92.4461 8.622C93.0154 8.622 93.5171 8.755 93.9511 9.021C94.3897 9.28233 94.7304 9.686 94.9731 10.232C95.2204 10.7733 95.3441 11.4617 95.3441 12.297C95.3441 13.137 95.2204 13.8417 94.9731 14.411C94.7304 14.9803 94.3827 15.412 93.9301 15.706C93.4774 15.9953 92.9407 16.14 92.3201 16.14C92.0214 16.14 91.7531 16.098 91.5151 16.014C91.2771 15.93 91.0671 15.8203 90.8851 15.685C90.7031 15.545 90.5467 15.3957 90.4161 15.237C90.2901 15.0737 90.1851 14.9127 90.1011 14.754V18.254H88.5961ZM92.0051 14.999C92.5604 14.999 93.0154 14.7843 93.3701 14.355C93.7294 13.921 93.9091 13.2443 93.9091 12.325C93.9091 11.5363 93.7434 10.9133 93.4121 10.456C93.0854 9.994 92.6164 9.763 92.0051 9.763C91.3751 9.763 90.8991 10.0033 90.5771 10.484C90.2551 10.96 90.0941 11.5737 90.0941 12.325C90.0941 12.815 90.1641 13.263 90.3041 13.669C90.4487 14.0703 90.6634 14.3923 90.9481 14.635C91.2327 14.8777 91.5851 14.999 92.0051 14.999ZM98.0836 12.731C98.0836 13.165 98.1536 13.5547 98.2936 13.9C98.4382 14.2407 98.6552 14.5113 98.9446 14.712C99.2339 14.908 99.5932 15.006 100.023 15.006C100.452 15.006 100.823 14.908 101.136 14.712C101.453 14.516 101.661 14.2243 101.759 13.837H103.145C103.061 14.3317 102.862 14.7517 102.55 15.097C102.242 15.4423 101.868 15.7037 101.43 15.881C100.991 16.0537 100.531 16.14 100.051 16.14C99.3646 16.14 98.7602 15.993 98.2376 15.699C97.7149 15.4003 97.3066 14.9757 97.0126 14.425C96.7232 13.8743 96.5786 13.2187 96.5786 12.458C96.5786 11.7067 96.7116 11.044 96.9776 10.47C97.2436 9.89133 97.6286 9.43867 98.1326 9.112C98.6366 8.78533 99.2432 8.622 99.9526 8.622C100.653 8.622 101.241 8.77133 101.717 9.07C102.197 9.36867 102.561 9.78867 102.809 10.33C103.056 10.8667 103.18 11.5013 103.18 12.234V12.731H98.0836ZM98.0836 11.758H101.752C101.752 11.38 101.686 11.037 101.556 10.729C101.425 10.4163 101.224 10.1713 100.954 9.994C100.688 9.812 100.352 9.721 99.9456 9.721C99.5302 9.721 99.1849 9.82133 98.9096 10.022C98.6342 10.2227 98.4266 10.4793 98.2866 10.792C98.1512 11.1047 98.0836 11.4267 98.0836 11.758ZM104.852 16V8.762H106.315V9.805C106.432 9.609 106.588 9.42467 106.784 9.252C106.985 9.07933 107.23 8.93933 107.519 8.832C107.813 8.72467 108.151 8.671 108.534 8.671C108.987 8.671 109.404 8.762 109.787 8.944C110.174 9.12133 110.485 9.40133 110.718 9.784C110.951 10.162 111.068 10.652 111.068 11.254V16H109.57V11.415C109.57 10.897 109.43 10.512 109.15 10.26C108.875 10.008 108.518 9.882 108.079 9.882C107.785 9.882 107.505 9.931 107.239 10.029C106.973 10.127 106.758 10.2763 106.595 10.477C106.432 10.673 106.35 10.9203 106.35 11.219V16H104.852Z" fill="#2B840E"/>
</svg>
