<svg width="101" height="26" viewBox="0 0 101 26" fill="none" xmlns="http://www.w3.org/2000/svg">
<rect width="101" height="26" rx="8" fill="#CFD2F5"/>
<path d="M27.687 18H26.112L24.32 13.765H21.779V18H20.281V7.878H24.299C25.0503 7.878 25.6733 7.99467 26.168 8.228C26.6627 8.45667 27.0313 8.78333 27.274 9.208C27.5167 9.63267 27.638 10.1343 27.638 10.713C27.638 11.259 27.5447 11.714 27.358 12.078C27.176 12.442 26.938 12.7383 26.644 12.967C26.3547 13.1957 26.049 13.3753 25.727 13.506L27.687 18ZM23.893 12.554C24.5977 12.554 25.1437 12.4023 25.531 12.099C25.9183 11.791 26.112 11.3523 26.112 10.783C26.112 10.223 25.9347 9.79833 25.58 9.509C25.23 9.21967 24.754 9.075 24.152 9.075H21.779V12.554H23.893ZM30.4595 14.731C30.4595 15.165 30.5295 15.5547 30.6695 15.9C30.8142 16.2407 31.0312 16.5113 31.3205 16.712C31.6099 16.908 31.9692 17.006 32.3985 17.006C32.8279 17.006 33.1989 16.908 33.5115 16.712C33.8289 16.516 34.0365 16.2243 34.1345 15.837H35.5205C35.4365 16.3317 35.2382 16.7517 34.9255 17.097C34.6175 17.4423 34.2442 17.7037 33.8055 17.881C33.3669 18.0537 32.9072 18.14 32.4265 18.14C31.7405 18.14 31.1362 17.993 30.6135 17.699C30.0909 17.4003 29.6825 16.9757 29.3885 16.425C29.0992 15.8743 28.9545 15.2187 28.9545 14.458C28.9545 13.7067 29.0875 13.044 29.3535 12.47C29.6195 11.8913 30.0045 11.4387 30.5085 11.112C31.0125 10.7853 31.6192 10.622 32.3285 10.622C33.0285 10.622 33.6165 10.7713 34.0925 11.07C34.5732 11.3687 34.9372 11.7887 35.1845 12.33C35.4319 12.8667 35.5555 13.5013 35.5555 14.234V14.731H30.4595ZM30.4595 13.758H34.1275C34.1275 13.38 34.0622 13.037 33.9315 12.729C33.8009 12.4163 33.6002 12.1713 33.3295 11.994C33.0635 11.812 32.7275 11.721 32.3215 11.721C31.9062 11.721 31.5609 11.8213 31.2855 12.022C31.0102 12.2227 30.8025 12.4793 30.6625 12.792C30.5272 13.1047 30.4595 13.4267 30.4595 13.758ZM39.1879 18.098C38.7586 18.098 38.4132 18.042 38.1519 17.93C37.8952 17.818 37.6992 17.6687 37.5639 17.482C37.4286 17.2907 37.3376 17.076 37.2909 16.838C37.2489 16.5953 37.2279 16.3457 37.2279 16.089V7.598H38.7049V15.935C38.7049 16.271 38.7702 16.5277 38.9009 16.705C39.0362 16.8823 39.2416 16.9827 39.5169 17.006L39.8949 17.02V17.972C39.7782 18.0093 39.6569 18.0397 39.5309 18.063C39.4096 18.0863 39.2952 18.098 39.1879 18.098ZM42.5181 14.731C42.5181 15.165 42.5881 15.5547 42.7281 15.9C42.8728 16.2407 43.0898 16.5113 43.3791 16.712C43.6685 16.908 44.0278 17.006 44.4571 17.006C44.8865 17.006 45.2575 16.908 45.5701 16.712C45.8875 16.516 46.0951 16.2243 46.1931 15.837H47.5791C47.4951 16.3317 47.2968 16.7517 46.9841 17.097C46.6761 17.4423 46.3028 17.7037 45.8641 17.881C45.4255 18.0537 44.9658 18.14 44.4851 18.14C43.7991 18.14 43.1948 17.993 42.6721 17.699C42.1495 17.4003 41.7411 16.9757 41.4471 16.425C41.1578 15.8743 41.0131 15.2187 41.0131 14.458C41.0131 13.7067 41.1461 13.044 41.4121 12.47C41.6781 11.8913 42.0631 11.4387 42.5671 11.112C43.0711 10.7853 43.6778 10.622 44.3871 10.622C45.0871 10.622 45.6751 10.7713 46.1511 11.07C46.6318 11.3687 46.9958 11.7887 47.2431 12.33C47.4905 12.8667 47.6141 13.5013 47.6141 14.234V14.731H42.5181ZM42.5181 13.758H46.1861C46.1861 13.38 46.1208 13.037 45.9901 12.729C45.8595 12.4163 45.6588 12.1713 45.3881 11.994C45.1221 11.812 44.7861 11.721 44.3801 11.721C43.9648 11.721 43.6195 11.8213 43.3441 12.022C43.0688 12.2227 42.8611 12.4793 42.7211 12.792C42.5858 13.1047 42.5181 13.4267 42.5181 13.758ZM51.2345 18.14C50.7678 18.14 50.3525 18.056 49.9885 17.888C49.6291 17.72 49.3468 17.4773 49.1415 17.16C48.9361 16.8427 48.8335 16.46 48.8335 16.012C48.8335 15.2093 49.1181 14.6097 49.6875 14.213C50.2568 13.8163 51.1645 13.6063 52.4105 13.583L53.6005 13.548V13.023C53.6005 12.6077 53.4768 12.281 53.2295 12.043C52.9821 11.805 52.6018 11.6883 52.0885 11.693C51.7011 11.693 51.3558 11.7817 51.0525 11.959C50.7538 12.1363 50.5578 12.428 50.4645 12.834H49.1625C49.1905 12.3533 49.3281 11.9497 49.5755 11.623C49.8275 11.2917 50.1728 11.042 50.6115 10.874C51.0501 10.706 51.5658 10.622 52.1585 10.622C52.8165 10.622 53.3578 10.713 53.7825 10.895C54.2071 11.0723 54.5221 11.3337 54.7275 11.679C54.9375 12.0243 55.0425 12.4443 55.0425 12.939V18H53.7755L53.6565 16.67C53.3858 17.2253 53.0428 17.6103 52.6275 17.825C52.2168 18.035 51.7525 18.14 51.2345 18.14ZM51.7035 17.097C51.9321 17.097 52.1585 17.0573 52.3825 16.978C52.6065 16.894 52.8095 16.782 52.9915 16.642C53.1735 16.4973 53.3181 16.3363 53.4255 16.159C53.5375 15.9817 53.5958 15.7997 53.6005 15.613V14.416L52.6205 14.437C52.1211 14.4417 51.6965 14.493 51.3465 14.591C51.0011 14.689 50.7351 14.8407 50.5485 15.046C50.3665 15.2513 50.2755 15.5243 50.2755 15.865C50.2755 16.2523 50.4108 16.5557 50.6815 16.775C50.9521 16.9897 51.2928 17.097 51.7035 17.097ZM59.6914 18.14C59.1874 18.14 58.7138 18.0607 58.2704 17.902C57.8318 17.7433 57.4631 17.4937 57.1644 17.153C56.8704 16.8123 56.6861 16.376 56.6114 15.844H57.9484C58.0091 16.1193 58.1234 16.348 58.2914 16.53C58.4641 16.7073 58.6694 16.8403 58.9074 16.929C59.1501 17.013 59.4091 17.055 59.6844 17.055C60.1418 17.055 60.5104 16.9733 60.7904 16.81C61.0751 16.642 61.2174 16.3853 61.2174 16.04C61.2174 15.7927 61.1404 15.5943 60.9864 15.445C60.8371 15.2957 60.5991 15.186 60.2724 15.116L58.8304 14.773C58.2331 14.633 57.7548 14.4113 57.3954 14.108C57.0361 13.8 56.8541 13.3707 56.8494 12.82C56.8494 12.3953 56.9544 12.0173 57.1644 11.686C57.3791 11.3547 57.6964 11.0957 58.1164 10.909C58.5364 10.7177 59.0591 10.622 59.6844 10.622C60.5011 10.622 61.1568 10.804 61.6514 11.168C62.1461 11.532 62.4028 12.0593 62.4214 12.75H61.1264C61.0798 12.4187 60.9281 12.1597 60.6714 11.973C60.4194 11.7817 60.0858 11.686 59.6704 11.686C59.2411 11.686 58.8888 11.7723 58.6134 11.945C58.3381 12.113 58.2004 12.372 58.2004 12.722C58.2004 12.96 58.3008 13.149 58.5014 13.289C58.7021 13.4243 59.0031 13.5363 59.4044 13.625L60.7764 13.968C61.1311 14.0613 61.4228 14.185 61.6514 14.339C61.8801 14.4883 62.0598 14.654 62.1904 14.836C62.3211 15.018 62.4121 15.207 62.4634 15.403C62.5194 15.599 62.5474 15.7833 62.5474 15.956C62.5474 16.4133 62.4308 16.8053 62.1974 17.132C61.9688 17.454 61.6398 17.7037 61.2104 17.881C60.7858 18.0537 60.2794 18.14 59.6914 18.14ZM65.3775 14.731C65.3775 15.165 65.4475 15.5547 65.5875 15.9C65.7322 16.2407 65.9492 16.5113 66.2385 16.712C66.5278 16.908 66.8872 17.006 67.3165 17.006C67.7458 17.006 68.1168 16.908 68.4295 16.712C68.7468 16.516 68.9545 16.2243 69.0525 15.837H70.4385C70.3545 16.3317 70.1562 16.7517 69.8435 17.097C69.5355 17.4423 69.1622 17.7037 68.7235 17.881C68.2848 18.0537 67.8252 18.14 67.3445 18.14C66.6585 18.14 66.0542 17.993 65.5315 17.699C65.0088 17.4003 64.6005 16.9757 64.3065 16.425C64.0172 15.8743 63.8725 15.2187 63.8725 14.458C63.8725 13.7067 64.0055 13.044 64.2715 12.47C64.5375 11.8913 64.9225 11.4387 65.4265 11.112C65.9305 10.7853 66.5372 10.622 67.2465 10.622C67.9465 10.622 68.5345 10.7713 69.0105 11.07C69.4912 11.3687 69.8552 11.7887 70.1025 12.33C70.3498 12.8667 70.4735 13.5013 70.4735 14.234V14.731H65.3775ZM65.3775 13.758H69.0455C69.0455 13.38 68.9802 13.037 68.8495 12.729C68.7188 12.4163 68.5182 12.1713 68.2475 11.994C67.9815 11.812 67.6455 11.721 67.2395 11.721C66.8242 11.721 66.4788 11.8213 66.2035 12.022C65.9282 12.2227 65.7205 12.4793 65.5805 12.792C65.4452 13.1047 65.3775 13.4267 65.3775 13.758ZM74.7849 18.14C73.8329 18.14 73.0839 17.8157 72.5379 17.167C71.9919 16.5137 71.7189 15.5733 71.7189 14.346C71.7189 13.5947 71.8285 12.9413 72.0479 12.386C72.2672 11.826 72.5939 11.392 73.0279 11.084C73.4665 10.776 74.0079 10.622 74.6519 10.622C74.9785 10.622 75.2679 10.6617 75.5199 10.741C75.7765 10.8203 76.0005 10.923 76.1919 11.049C76.3879 11.175 76.5489 11.3103 76.6749 11.455C76.8055 11.5997 76.9059 11.735 76.9759 11.861V7.598H78.4809V18H77.3609L77.1929 16.516C77.1415 16.6747 77.0622 16.8473 76.9549 17.034C76.8475 17.2207 76.7005 17.398 76.5139 17.566C76.3319 17.734 76.0985 17.8717 75.8139 17.979C75.5292 18.0863 75.1862 18.14 74.7849 18.14ZM75.0719 17.013C75.7439 17.013 76.2292 16.803 76.5279 16.383C76.8265 15.9583 76.9759 15.263 76.9759 14.297C76.9712 13.751 76.9035 13.289 76.7729 12.911C76.6422 12.533 76.4392 12.2483 76.1639 12.057C75.8932 11.861 75.5362 11.763 75.0929 11.763C74.5375 11.763 74.0849 11.9637 73.7349 12.365C73.3849 12.7617 73.2099 13.4057 73.2099 14.297C73.2099 15.1743 73.3685 15.8463 73.6859 16.313C74.0079 16.7797 74.4699 17.013 75.0719 17.013Z" fill="#434991"/>
</svg>
